# Blender v2.72 (sub 0) OBJ File: ''
# www.blender.org
mtllib untitled.mtl
o Cube
v 1.000000 -1.000000 -1.000000
v 1.000000 -1.000000 1.000000
v -1.000000 -1.000000 1.000000
v -1.000000 -1.000000 -1.000000
v 1.000000 1.000000 -0.999999
v 0.999999 1.000000 1.000001
v -1.000000 1.000000 1.000000
v -1.000000 1.000000 -1.000000
vt 0.670237 0.749705
vt 0.335367 0.750033
vt 0.335150 0.500011
vt 0.335704 0.251431
vt 0.335239 0.000260
vt 0.670623 0.000434
vt 0.670568 0.500148
vt 1.000230 0.500011
vt 0.999975 0.749738
vt 0.670214 0.999765
vt 0.335335 0.999902
vt -0.000251 0.749771
vt 0.000189 0.500251
vt 0.671322 0.250043
vn 0.000000 -1.000000 0.000000
vn 0.000000 1.000000 0.000000
vn 1.000000 -0.000000 0.000000
vn -0.000000 -0.000000 1.000000
vn -1.000000 -0.000000 -0.000000
vn 0.000000 0.000000 -1.000000
usemtl Material.001
s off
f 2/1/1 3/2/1 4/3/1
f 8/4/2 7/5/2 6/6/2
f 1/7/3 5/8/3 6/9/3
f 2/1/4 6/10/4 7/11/4
f 7/12/5 8/13/5 4/3/5
f 1/7/6 4/3/6 8/4/6
f 1/7/1 2/1/1 4/3/1
f 5/14/2 8/4/2 6/6/2
f 2/1/3 1/7/3 6/9/3
f 3/2/4 2/1/4 7/11/4
f 3/2/5 7/12/5 4/3/5
f 5/14/6 1/7/6 8/4/6
