# Blender v2.69 (sub 0) OBJ File: ''
# www.blender.org
o Cylinder
v -0.000002 0.099999 -100.000229
v 0.000002 0.100001 99.999687
v 0.019507 0.098078 -100.000229
v 0.019511 0.098080 99.999687
v 0.038267 0.092387 -100.000214
v 0.038270 0.092389 99.999687
v 0.055555 0.083146 -100.000214
v 0.055559 0.083148 99.999687
v 0.070709 0.070710 -100.000214
v 0.070712 0.070712 99.999687
v 0.083145 0.055556 -100.000214
v 0.083149 0.055558 99.999687
v 0.092386 0.038267 -100.000214
v 0.092390 0.038269 99.999695
v 0.098077 0.019508 -100.000214
v 0.098080 0.019510 99.999695
v 0.099998 -0.000001 -100.000214
v 0.100002 0.000001 99.999695
v 0.098077 -0.019510 -100.000206
v 0.098080 -0.019508 99.999695
v 0.092386 -0.038269 -100.000206
v 0.092390 -0.038267 99.999695
v 0.083145 -0.055558 -100.000206
v 0.083149 -0.055556 99.999710
v 0.070709 -0.070712 -100.000206
v 0.070712 -0.070710 99.999710
v 0.055555 -0.083148 -100.000206
v 0.055559 -0.083146 99.999710
v 0.038267 -0.092389 -100.000206
v 0.038270 -0.092387 99.999710
v 0.019507 -0.098079 -100.000191
v 0.019511 -0.098077 99.999710
v -0.000002 -0.100001 -100.000175
v 0.000002 -0.099999 99.999710
v -0.019511 -0.098079 -100.000175
v -0.019507 -0.098077 99.999710
v -0.038270 -0.092389 -100.000191
v -0.038267 -0.092387 99.999710
v -0.055559 -0.083148 -100.000191
v -0.055555 -0.083146 99.999710
v -0.070712 -0.070712 -100.000191
v -0.070709 -0.070710 99.999718
v -0.083149 -0.055558 -100.000191
v -0.083145 -0.055556 99.999710
v -0.092390 -0.038269 -100.000191
v -0.092386 -0.038267 99.999710
v -0.098080 -0.019510 -100.000191
v -0.098077 -0.019508 99.999710
v -0.100002 -0.000001 -100.000191
v -0.099998 0.000001 99.999710
v -0.098080 0.019508 -100.000206
v -0.098077 0.019510 99.999710
v -0.092389 0.038267 -100.000206
v -0.092386 0.038269 99.999710
v -0.083148 0.055556 -100.000206
v -0.083145 0.055558 99.999695
v -0.070712 0.070710 -100.000206
v -0.070709 0.070712 99.999695
v -0.055558 0.083146 -100.000206
v -0.055555 0.083148 99.999695
v -0.038270 0.092387 -100.000206
v -0.019510 0.098078 -100.000214
v -0.019507 0.098080 99.999687
v -0.038266 0.092389 99.999687
vt 0.991393 0.081024
vt 0.498459 0.939165
vt 0.998680 0.080959
vt -0.001320 0.080959
vt 0.493249 0.939100
vt 0.005761 0.081877
vt 0.488094 0.940018
vt 0.012195 0.083743
vt 0.483121 0.941884
vt 0.017630 0.086484
vt 0.478458 0.944625
vt 0.021838 0.089997
vt 0.474238 0.948137
vt 0.024711 0.094144
vt 0.470597 0.952285
vt 0.026245 0.098768
vt 0.467676 0.956909
vt 0.026504 0.103691
vt 0.465621 0.961832
vt 0.025602 0.108723
vt 0.464575 0.966864
vt 0.023671 0.113671
vt 0.464675 0.971812
vt 0.020856 0.118345
vt 0.466036 0.976485
vt 0.017301 0.122565
vt 0.468732 0.980705
vt 0.013149 0.126168
vt 0.472768 0.984309
vt 0.008537 0.129018
vt 0.478052 0.987159
vt 0.003597 0.131004
vt 0.484372 0.989145
vt -0.001541 0.132049
vt 0.998459 0.132049
vt 0.936469 0.951615
vt 0.993249 0.132114
vt 0.498680 0.990255
vt 0.988094 0.131196
vt 0.505761 0.989337
vt 0.983121 0.129330
vt 0.512195 0.987471
vt 0.978458 0.126589
vt 0.517630 0.984729
vt 0.974238 0.123076
vt 0.521838 0.981217
vt 0.970597 0.118929
vt 0.524711 0.977069
vt 0.967676 0.114305
vt 0.526245 0.972445
vt 0.965621 0.109382
vt 0.526505 0.967523
vt 0.862302 0.131057
vt 0.525602 0.962491
vt 0.964675 0.099402
vt 0.523671 0.957543
vt 0.966036 0.094728
vt 0.520856 0.952869
vt 0.968732 0.090508
vt 0.517301 0.948649
vt 0.972768 0.086904
vt 0.513149 0.945045
vt 0.978052 0.084055
vt 0.503597 0.940210
vt 0.984373 0.082069
vt 0.508537 0.942196
vt 0.491393 0.990190
vt 1.005761 0.081877
vt 1.012195 0.083743
vt 1.017630 0.086484
vt 1.021838 0.089997
vt 1.024711 0.094144
vt 1.026245 0.098768
vt 1.026504 0.103691
vt 1.025602 0.108723
vt 1.023671 0.113671
vt 1.020856 0.118345
vt 1.017301 0.122565
vt 1.003597 0.131004
vt 1.013149 0.126168
vt 1.008537 0.129018
vn 0.097993 0.995187 -0.000000
vn 0.290295 0.956937 -0.000000
vn 0.471411 0.881913 -0.000000
vn 0.634376 0.773025 -0.000000
vn 0.773025 0.634376 -0.000000
vn 0.881925 0.471390 -0.000000
vn 0.956933 0.290309 -0.000000
vn 0.995187 0.097993 -0.000000
vn 0.995187 -0.097994 -0.000000
vn 0.956933 -0.290310 -0.000000
vn 0.881924 -0.471391 -0.000000
vn 0.773025 -0.634376 -0.000000
vn 0.634376 -0.773025 0.000000
vn 0.471411 -0.881913 0.000000
vn 0.290248 -0.956951 0.000000
vn 0.098044 -0.995182 0.000000
vn -0.098044 -0.995182 0.000000
vn -0.290262 -0.956947 0.000000
vn -0.471390 -0.881925 0.000000
vn -0.634401 -0.773004 0.000000
vn -0.772999 -0.634407 0.000000
vn -0.881925 -0.471390 0.000000
vn -0.956947 -0.290262 0.000000
vn -0.995182 -0.098043 0.000000
vn -0.995182 0.098045 0.000000
vn -0.956933 0.290310 0.000000
vn -0.881925 0.471390 0.000000
vn -0.773025 0.634376 0.000000
vn -0.634376 0.773025 -0.000000
vn -0.471412 0.881913 -0.000000
vn 0.000000 0.000000 1.000000
vn -0.097998 0.995187 -0.000000
vn -0.290295 0.956937 -0.000000
vn -0.000398 -0.003972 -0.999992
vn 0.290309 0.956933 -0.000000
vn 0.471390 0.881925 -0.000000
vn 0.634401 0.773004 -0.000000
vn 0.772999 0.634407 -0.000000
vn 0.881924 0.471391 -0.000000
vn 0.956947 0.290262 -0.000000
vn 0.995182 0.098044 -0.000000
vn 0.995182 -0.098043 -0.000000
vn 0.956947 -0.290262 -0.000000
vn 0.772999 -0.634407 -0.000000
vn 0.634401 -0.773004 -0.000000
vn 0.471390 -0.881925 0.000000
vn 0.290262 -0.956947 0.000000
vn -0.290248 -0.956951 0.000000
vn -0.471411 -0.881913 0.000000
vn -0.634376 -0.773024 0.000000
vn -0.773024 -0.634376 0.000000
vn -0.881924 -0.471391 0.000000
vn -0.956933 -0.290310 0.000000
vn -0.995187 -0.097994 0.000000
vn -0.995187 0.097993 0.000000
vn -0.956933 0.290309 0.000000
vn -0.471390 0.881925 -0.000000
vn 0.000000 0.000826 1.000000
vn 0.000000 -0.000113 1.000000
vn 0.000000 -0.000069 1.000000
vn 0.000542 0.001013 0.999999
vn 0.000000 -0.000061 1.000000
vn 0.000757 -0.000017 1.000000
vn 0.000000 0.000015 1.000000
vn -0.000597 0.000041 1.000000
vn 0.000550 0.000061 1.000000
vn -0.000232 0.000000 1.000000
vn 0.000173 0.000000 1.000000
vn 0.000000 -0.000548 1.000000
vn 0.000000 -0.000044 1.000000
vn 0.000000 0.000503 1.000000
vn 0.000000 0.000883 1.000000
vn 0.000257 0.000100 1.000000
vn -0.000098 0.000086 1.000000
vn 0.001858 0.000042 0.999998
vn -0.001348 0.000021 0.999999
vn 0.000000 -0.000034 1.000000
vn 0.000000 -0.000195 1.000000
vn 0.006359 0.001265 0.999979
vn -0.097993 0.995187 -0.000000
vn -0.290309 0.956933 -0.000000
vn -0.000537 -0.003970 -0.999992
vn 0.000000 0.000000 -1.000000
vn 0.000542 0.000000 -1.000000
vn 0.000000 -0.000362 -1.000000
vn -0.000663 -0.000015 -1.000000
vn 0.001194 -0.000022 -0.999999
vn 0.000000 -0.000027 -1.000000
vn -0.000397 -0.003969 -0.999992
vn 0.003180 0.000000 -0.999995
vn -0.001590 0.003518 -0.999993
vn -0.000409 -0.000078 -1.000000
vn -0.000337 0.000654 -1.000000
vn -0.000323 -0.000194 -1.000000
vn -0.003180 0.001759 -0.999993
vn -0.000539 -0.000194 -1.000000
vn 0.000000 -0.000007 -1.000000
vn 0.006361 0.000000 -0.999980
vn -0.004296 0.000000 -0.999991
vn 0.002737 0.000000 -0.999996
vn 0.000000 -0.000080 -1.000000
vn 0.000135 -0.000133 -1.000000
vn 0.004380 -0.000959 -0.999990
vn -0.005369 0.000000 -0.999986
s off
f 1/1/1 2/2/1 3/3/1
f 3/4/2 4/5/2 5/6/2
f 5/6/3 6/7/3 7/8/3
f 7/8/4 8/9/4 9/10/4
f 9/10/5 10/11/5 11/12/5
f 11/12/6 12/13/6 13/14/6
f 13/14/7 14/15/7 15/16/7
f 15/16/8 16/17/8 17/18/8
f 17/18/9 18/19/9 19/20/9
f 19/20/10 20/21/10 21/22/10
f 21/22/11 22/23/11 23/24/11
f 23/24/12 24/25/12 25/26/12
f 25/26/13 26/27/13 27/28/13
f 27/28/14 28/29/14 29/30/14
f 29/30/15 30/31/15 31/32/15
f 31/32/16 32/33/16 33/34/16
f 33/35/17 34/36/17 35/37/17
f 35/37/18 36/38/18 37/39/18
f 37/39/19 38/40/19 39/41/19
f 39/41/20 40/42/20 41/43/20
f 41/43/21 42/44/21 43/45/21
f 43/45/22 44/46/22 45/47/22
f 45/47/23 46/48/23 47/49/23
f 47/49/24 48/50/24 49/51/24
f 49/51/25 50/52/25 51/53/25
f 51/53/26 52/54/26 53/55/26
f 53/55/27 54/56/27 55/57/27
f 55/57/28 56/58/28 57/59/28
f 57/59/29 58/60/29 59/61/29
f 59/61/30 60/62/30 61/63/30
f 4/5/31 2/2/31 6/7/31
f 63/64/32 1/1/32 62/65/32
f 61/63/33 64/66/33 62/65/33
f 1/1/34 3/3/34 62/65/34
f 2/2/1 4/5/1 3/3/1
f 4/5/35 6/7/35 5/6/35
f 6/7/36 8/9/36 7/8/36
f 8/9/37 10/11/37 9/10/37
f 10/11/38 12/13/38 11/12/38
f 12/13/39 14/15/39 13/14/39
f 14/15/40 16/17/40 15/16/40
f 16/17/41 18/19/41 17/18/41
f 18/19/42 20/21/42 19/20/42
f 20/21/43 22/23/43 21/22/43
f 22/23/11 24/25/11 23/24/11
f 24/25/44 26/27/44 25/26/44
f 26/27/45 28/29/45 27/28/45
f 28/29/46 30/31/46 29/30/46
f 30/31/47 32/33/47 31/32/47
f 32/33/16 34/67/16 33/34/16
f 34/36/17 36/38/17 35/37/17
f 36/38/48 38/40/48 37/39/48
f 38/40/49 40/42/49 39/41/49
f 40/42/50 42/44/50 41/43/50
f 42/44/51 44/46/51 43/45/51
f 44/46/52 46/48/52 45/47/52
f 46/48/53 48/50/53 47/49/53
f 48/50/54 50/52/54 49/51/54
f 50/52/55 52/54/55 51/53/55
f 52/54/56 54/56/56 53/55/56
f 54/56/27 56/58/27 55/57/27
f 56/58/28 58/60/28 57/59/28
f 58/60/29 60/62/29 59/61/29
f 60/62/57 64/66/57 61/63/57
f 2/2/31 63/64/31 6/7/31
f 63/64/31 64/66/31 6/7/31
f 64/66/58 60/62/58 6/7/58
f 60/62/59 58/60/59 6/7/59
f 58/60/60 56/58/60 6/7/60
f 56/58/61 54/56/61 6/7/61
f 54/56/62 52/54/62 6/7/62
f 52/54/63 50/52/63 6/7/63
f 50/52/64 48/50/64 6/7/64
f 48/50/65 46/48/65 6/7/65
f 46/48/66 44/46/66 6/7/66
f 32/33/31 36/38/31 34/67/31
f 28/29/31 32/33/31 30/31/31
f 28/29/31 36/38/31 32/33/31
f 26/27/31 36/38/31 28/29/31
f 26/27/67 38/40/67 36/38/67
f 26/27/68 40/42/68 38/40/68
f 42/44/69 40/42/69 26/27/69
f 42/44/70 26/27/70 24/25/70
f 44/46/71 42/44/71 24/25/71
f 44/46/72 24/25/72 22/23/72
f 8/9/31 6/7/31 10/11/31
f 6/7/73 44/46/73 10/11/73
f 44/46/74 22/23/74 10/11/74
f 22/23/75 20/21/75 10/11/75
f 20/21/76 18/19/76 10/11/76
f 18/19/77 16/17/77 10/11/77
f 16/17/78 14/15/78 10/11/78
f 14/15/79 12/13/79 10/11/79
f 2/2/80 1/1/80 63/64/80
f 64/66/81 63/64/81 62/65/81
f 3/3/82 5/68/82 62/65/82
f 5/68/83 7/69/83 62/65/83
f 7/69/83 9/70/83 62/65/83
f 9/70/83 11/71/83 62/65/83
f 11/71/83 13/72/83 62/65/83
f 13/72/84 15/73/84 62/65/84
f 15/73/83 17/74/83 62/65/83
f 17/74/85 19/75/85 62/65/85
f 19/75/86 21/76/86 62/65/86
f 21/76/87 23/77/87 62/65/87
f 23/77/88 25/78/88 62/65/88
f 35/37/89 31/79/89 33/35/89
f 47/49/90 43/45/90 45/47/90
f 27/80/91 29/81/91 31/79/91
f 27/80/92 31/79/92 35/37/92
f 25/78/93 27/80/93 35/37/93
f 62/65/94 25/78/94 35/37/94
f 61/63/95 62/65/95 59/61/95
f 62/65/96 35/37/96 59/61/96
f 35/37/97 37/39/97 59/61/97
f 55/57/98 51/53/98 53/55/98
f 49/51/99 43/45/99 47/49/99
f 49/51/100 41/43/100 43/45/100
f 39/41/83 41/43/83 49/51/83
f 37/39/83 39/41/83 49/51/83
f 59/61/101 37/39/101 57/59/101
f 37/39/102 49/51/102 57/59/102
f 49/51/103 51/53/103 57/59/103
f 51/53/104 55/57/104 57/59/104
