# Blender v2.69 (sub 0) OBJ File: ''
# www.blender.org
o Cylinder00
v 0.019745 -0.000000 -0.741097
v 0.016223 0.010838 -0.741097
v 0.007004 0.017537 -0.741097
v -0.004392 0.017537 -0.741097
v -0.013612 0.010838 -0.741097
v -0.017133 -0.000000 -0.741097
v -0.013612 -0.010838 -0.741097
v -0.004392 -0.017537 -0.741097
v 0.007004 -0.017537 -0.741097
v 0.016223 -0.010838 -0.741097
v 0.091818 -0.000000 1.180321
v 0.074531 0.053201 1.180321
v 0.029275 0.086082 1.180321
v -0.026664 0.086082 1.180321
v -0.071920 0.053201 1.180321
v -0.089206 -0.000000 1.180321
v -0.071920 -0.053202 1.180321
v -0.026664 -0.086082 1.180321
v 0.029275 -0.086082 1.180321
v 0.074531 -0.053202 1.180321
v 0.029275 0.086082 -0.635462
v 0.074531 0.053201 -0.635462
v 0.091818 -0.000000 -0.635462
v 0.074531 -0.053202 -0.635462
v 0.029275 -0.086082 -0.635462
v -0.026664 -0.086082 -0.635462
v -0.071920 -0.053202 -0.635462
v -0.089206 -0.000000 -0.635462
v -0.071920 0.053201 -0.635462
v -0.026664 0.086082 -0.635462
v 0.025384 0.074104 -0.700362
v 0.064342 0.045799 -0.700362
v 0.079223 -0.000000 -0.700362
v 0.064342 -0.045799 -0.700362
v 0.025384 -0.074104 -0.700362
v -0.022772 -0.074104 -0.700362
v -0.061731 -0.045799 -0.700362
v -0.076612 -0.000000 -0.700362
v -0.061731 0.045799 -0.700362
v -0.022772 0.074104 -0.700362
v 0.013751 0.084891 0.870299
v 0.013751 0.084891 1.068717
v -0.000359 0.258666 0.945876
v -0.000359 0.258666 1.069598
v -0.014468 0.084891 0.870299
v -0.014468 0.084891 1.068717
v 0.013751 0.084892 0.108311
v 0.013751 0.084892 0.405640
v -0.000358 0.238598 0.169237
v -0.000358 0.238598 0.344714
v -0.014468 0.084892 0.108311
v -0.014468 0.084892 0.405640
v -0.014056 -0.083419 0.870299
v -0.014056 -0.083419 1.068717
v 0.000053 -0.257194 0.945876
v 0.000053 -0.257194 1.069598
v 0.014163 -0.083419 0.870299
v 0.014163 -0.083419 1.068717
v -0.082908 0.012305 0.870299
v -0.082908 0.012305 1.068717
v -0.256683 -0.001805 0.945876
v -0.256683 -0.001805 1.069598
v -0.082908 -0.015914 0.870299
v -0.082908 -0.015914 1.068717
v 0.086338 -0.015503 0.870300
v 0.086338 -0.015503 1.068717
v 0.260113 -0.001393 0.945876
v 0.260113 -0.001393 1.069598
v 0.086338 0.012717 0.870300
v 0.086338 0.012717 1.068717
v 0.086338 -0.013900 0.108311
v 0.086338 -0.013900 0.405640
v 0.240045 0.000209 0.169237
v 0.240045 0.000209 0.344714
v 0.086338 0.014319 0.108311
v 0.086338 0.014319 0.405640
v -0.083695 0.013907 0.108311
v -0.083695 0.013907 0.405640
v -0.237402 -0.000203 0.169237
v -0.237402 -0.000203 0.344714
v -0.083695 -0.014312 0.108311
v -0.083695 -0.014312 0.405640
v -0.014056 -0.084305 0.108311
v -0.014056 -0.084305 0.405640
v 0.000053 -0.238012 0.169237
v 0.000053 -0.238012 0.344714
v 0.014163 -0.084305 0.108311
v 0.014163 -0.084305 0.405640
v -0.022772 0.074104 -0.700362
v -0.022772 0.074104 -0.700362
v -0.004392 0.017537 -0.741097
v 0.007004 -0.017537 -0.741097
v -0.004392 -0.017537 -0.741097
v 0.019745 -0.000000 -0.741097
v 0.019745 -0.000000 -0.741097
v 0.016223 -0.010838 -0.741097
v 0.007004 -0.017537 -0.741097
v 0.074531 0.053201 1.180321
v 0.091818 -0.000000 1.180321
v 0.074531 0.053201 1.180321
v 0.074531 0.053201 1.180321
v -0.026664 0.086082 1.180321
v -0.026664 0.086082 -0.635462
v -0.026664 0.086082 -0.635462
v 0.029275 -0.086082 1.180321
v 0.029275 -0.086082 1.180321
v 0.074531 -0.053202 1.180321
v 0.029275 -0.086082 1.180321
v 0.074531 -0.053202 1.180321
v 0.091818 -0.000000 1.180321
v 0.074531 -0.053202 1.180321
v 0.091818 -0.000000 1.180321
v -0.026664 0.086082 -0.635462
v -0.022772 0.074104 -0.700362
v -0.022772 0.074104 -0.700362
v -0.013612 -0.010838 -0.741097
v -0.017133 -0.000000 -0.741097
v -0.013612 0.010838 -0.741097
v -0.013612 0.010838 -0.741097
v -0.004392 -0.017537 -0.741097
v -0.013612 -0.010838 -0.741097
v -0.004392 -0.017537 -0.741097
v -0.013612 0.010838 -0.741097
v -0.004392 0.017537 -0.741097
v -0.004392 -0.017537 -0.741097
v -0.004392 0.017537 -0.741097
v 0.007004 0.017537 -0.741097
v -0.004392 -0.017537 -0.741097
v 0.007004 0.017537 -0.741097
v 0.016223 0.010838 -0.741097
v -0.004392 -0.017537 -0.741097
v 0.016223 0.010838 -0.741097
v 0.019745 -0.000000 -0.741097
v -0.071920 -0.053202 1.180321
v -0.026664 -0.086082 1.180321
v -0.089206 -0.000000 1.180321
v -0.071920 -0.053202 1.180321
v -0.071920 0.053201 1.180321
v -0.089206 -0.000000 1.180321
v -0.026664 0.086082 1.180321
v -0.071920 0.053201 1.180321
v 0.029275 0.086082 1.180321
v -0.026664 0.086082 1.180321
v 0.029275 0.086082 1.180321
v -0.000359 0.258666 1.069598
v -0.000359 0.258666 1.069598
v 0.013751 0.084891 1.068717
v -0.000359 0.258666 1.069598
v -0.000359 0.258666 0.945876
v 0.013751 0.084891 0.870299
v -0.000358 0.238598 0.344714
v -0.000358 0.238598 0.344714
v 0.013751 0.084892 0.405640
v -0.000358 0.238598 0.344714
v -0.000358 0.238598 0.169237
v 0.013751 0.084892 0.108311
v 0.000053 -0.257194 1.069598
v 0.000053 -0.257194 1.069598
v -0.014056 -0.083419 1.068717
v 0.000053 -0.257194 1.069598
v 0.000053 -0.257194 0.945876
v -0.014056 -0.083419 0.870299
v -0.256683 -0.001805 1.069598
v -0.256683 -0.001805 1.069598
v -0.082908 0.012305 1.068717
v -0.256683 -0.001805 1.069598
v -0.256683 -0.001805 0.945876
v -0.082908 0.012305 0.870299
v 0.260113 -0.001393 1.069598
v 0.260113 -0.001393 1.069598
v 0.086338 -0.015503 1.068717
v 0.260113 -0.001393 1.069598
v 0.260113 -0.001393 0.945876
v 0.086338 -0.015503 0.870300
v 0.240045 0.000209 0.344714
v 0.240045 0.000209 0.344714
v 0.086338 -0.013900 0.405640
v 0.240045 0.000209 0.344714
v 0.240045 0.000209 0.169237
v 0.086338 -0.013900 0.108311
v -0.237402 -0.000203 0.344714
v -0.237402 -0.000203 0.344714
v -0.083695 0.013907 0.405640
v -0.237402 -0.000203 0.344714
v -0.237402 -0.000203 0.169237
v -0.083695 0.013907 0.108311
v 0.000053 -0.238012 0.344714
v 0.000053 -0.238012 0.344714
v -0.014056 -0.084305 0.405640
v 0.000053 -0.238012 0.344714
v 0.000053 -0.238012 0.169237
v -0.014056 -0.084305 0.108311
vt 0.201832 0.789023
vt 0.201832 0.762900
vt 0.300342 0.762900
vt 0.300342 0.789023
vt 0.103322 0.789023
vt 0.103322 0.762900
vt 0.004812 0.789023
vt 0.004812 0.762900
vt 0.891402 0.789023
vt 0.891402 0.762900
vt 0.989912 0.762900
vt 0.989912 0.789023
vt 0.792892 0.789023
vt 0.792892 0.762900
vt 0.694382 0.789023
vt 0.694382 0.762900
vt 0.595872 0.789023
vt 0.595872 0.762900
vt 0.497362 0.789023
vt 0.497362 0.762900
vt 0.398852 0.789023
vt 0.398852 0.762900
vt 0.322104 0.876718
vt 0.294905 0.876718
vt 0.352513 0.918572
vt 0.344108 0.892705
vt 0.210974 0.952726
vt 0.162899 0.804766
vt 0.210974 0.839695
vt 0.229337 0.896210
vt 0.201832 0.006719
vt 0.300342 0.006719
vt 0.300342 0.740053
vt 0.201832 0.740053
vt 0.103322 0.006719
vt 0.103322 0.740053
vt 0.004812 0.006719
vt 0.004812 0.740053
vt 0.891402 0.006719
vt 0.989912 0.006719
vt 0.989912 0.740053
vt 0.891402 0.740053
vt 0.792892 0.006719
vt 0.792892 0.740053
vt 0.694382 0.006719
vt 0.694382 0.740053
vt 0.595872 0.006719
vt 0.595872 0.740053
vt 0.497362 0.006719
vt 0.497362 0.740053
vt 0.398852 0.006719
vt 0.398852 0.740053
vt 0.272901 0.892705
vt 0.264496 0.918572
vt 0.272901 0.944440
vt 0.294905 0.960427
vt 0.322104 0.960427
vt 0.344108 0.944440
vt 0.055400 0.839695
vt 0.103475 0.804766
vt 0.037037 0.896210
vt 0.055400 0.952726
vt 0.103475 0.987654
vt 0.162899 0.987654
vt 0.410425 0.844169
vt 0.529565 0.844337
vt 0.521721 0.955465
vt 0.410425 0.955465
vt 0.649457 0.844505
vt 0.649401 0.955790
vt 0.538085 0.972511
vt 0.649401 0.989556
vt 0.537408 0.813701
vt 0.648818 0.813701
vt 0.735528 0.844169
vt 0.854668 0.844337
vt 0.846824 0.955465
vt 0.735528 0.955465
vt 0.974560 0.844505
vt 0.974504 0.955790
vt 0.863188 0.972511
vt 0.974504 0.989556
vt 0.862511 0.813701
vt 0.973920 0.813701
vn 0.555759 0.180578 -0.811495
vn 0.555760 0.180577 -0.811494
vn 0.343479 0.472758 -0.811494
vn 0.343483 0.472757 -0.811493
vn -0.000001 0.584361 -0.811494
vn 0.000005 0.584361 -0.811494
vn -0.343480 0.472758 -0.811494
vn -0.343474 0.472759 -0.811495
vn -0.555762 0.180577 -0.811493
vn -0.555757 0.180578 -0.811496
vn -0.555760 -0.180577 -0.811494
vn -0.343480 -0.472758 -0.811493
vn -0.343476 -0.472758 -0.811495
vn 0.000000 -0.584361 -0.811494
vn 0.343479 -0.472758 -0.811494
vn 0.343485 -0.472757 -0.811492
vn 0.555759 -0.180578 -0.811495
vn 0.555764 -0.180577 -0.811492
vn 0.000000 0.000000 -1.000000
vn -0.000012 0.000000 -1.000000
vn -0.000011 0.000000 1.000000
vn 0.000008 0.000000 1.000000
vn 0.951057 0.309017 0.000000
vn 0.951056 0.309017 0.000000
vn 0.587785 0.809017 0.000000
vn -0.000000 1.000000 0.000000
vn -0.587785 0.809017 0.000000
vn -0.951057 0.309017 0.000000
vn -0.951056 -0.309017 -0.000000
vn -0.951057 -0.309017 -0.000000
vn -0.587785 -0.809017 -0.000000
vn 0.000000 -1.000000 -0.000000
vn 0.587785 -0.809017 -0.000000
vn 0.587786 -0.809017 -0.000000
vn 0.951057 -0.309017 -0.000000
vn 0.935261 0.303885 -0.181496
vn 0.578023 0.795581 -0.181496
vn -0.000001 0.983392 -0.181496
vn 0.000000 0.983392 -0.181496
vn -0.578024 0.795580 -0.181496
vn -0.578023 0.795581 -0.181496
vn -0.935261 0.303885 -0.181496
vn -0.935261 0.303886 -0.181496
vn -0.935261 -0.303885 -0.181496
vn -0.935261 -0.303885 -0.181497
vn -0.578023 -0.795580 -0.181497
vn -0.578023 -0.795581 -0.181497
vn 0.000000 -0.983392 -0.181497
vn 0.578023 -0.795580 -0.181497
vn 0.578023 -0.795581 -0.181496
vn 0.935261 -0.303885 -0.181496
vn 0.935261 -0.303885 -0.181497
vn -0.000014 0.000000 -1.000000
vn 0.000009 0.000000 -1.000000
vn -0.000007 0.000000 -1.000000
vn 0.000012 0.000000 -1.000000
vn 0.000000 0.000000 1.000000
vn -0.000003 0.000000 1.000000
vn 0.000002 0.000000 1.000000
vn 0.000003 0.000000 1.000000
vn 0.996720 0.080929 -0.000000
vn 0.996720 0.080928 0.000000
vn -0.996720 0.080928 -0.000000
vn 0.000000 -0.005072 0.999987
vn 0.000000 0.398823 -0.917028
vn 0.995813 0.091412 0.000000
vn 0.995813 0.091411 0.000000
vn -0.995813 0.091411 -0.000000
vn 0.000000 0.368488 0.929633
vn 0.000000 0.368488 -0.929632
vn -0.996720 -0.080929 -0.000000
vn -0.996720 -0.080928 -0.000000
vn 0.996720 -0.080929 0.000000
vn 0.996720 -0.080928 0.000000
vn 0.000000 0.005072 0.999987
vn 0.000000 -0.398823 -0.917028
vn -0.080929 0.996720 -0.000000
vn -0.080928 0.996720 0.000000
vn -0.080929 -0.996720 -0.000000
vn -0.080928 -0.996720 0.000000
vn 0.005072 0.000000 0.999987
vn -0.398823 0.000000 -0.917028
vn 0.080929 -0.996720 -0.000000
vn 0.080928 -0.996720 -0.000000
vn 0.080929 0.996720 0.000000
vn 0.080928 0.996720 0.000000
vn -0.005071 0.000000 0.999987
vn 0.398822 0.000000 -0.917028
vn 0.091411 -0.995813 -0.000000
vn 0.091411 0.995813 0.000000
vn 0.368488 0.000000 0.929633
vn 0.368488 0.000000 -0.929632
vn -0.091411 0.995813 -0.000000
vn -0.091411 -0.995813 -0.000000
vn -0.368487 0.000000 0.929633
vn -0.368488 0.000000 -0.929632
vn -0.995813 -0.091411 -0.000000
vn 0.995813 -0.091411 0.000000
vn 0.000000 -0.368488 0.929633
vn 0.000000 -0.368488 -0.929632
s off
f 2/1/1 32/2/1 33/3/1
f 33/3/2 1/4/2 2/1/2
f 3/5/3 31/6/3 32/2/3
f 32/2/4 2/1/4 3/5/4
f 4/7/5 40/8/5 31/6/5
f 31/6/6 3/5/6 4/7/6
f 5/9/7 39/10/7 89/11/7
f 90/11/8 91/12/8 5/9/8
f 6/13/9 38/14/9 39/10/9
f 39/10/10 5/9/10 6/13/10
f 7/15/11 37/16/11 38/14/11
f 38/14/11 6/13/11 7/15/11
f 8/17/12 36/18/12 37/16/12
f 37/16/13 7/15/13 8/17/13
f 9/19/14 35/20/14 36/18/14
f 36/18/14 8/17/14 9/19/14
f 10/21/15 34/22/15 35/20/15
f 35/20/16 9/19/16 10/21/16
f 1/4/17 33/3/17 34/22/17
f 1/4/18 34/22/18 10/21/18
f 92/23/19 93/24/19 94/25/19
f 95/25/20 96/26/20 97/23/20
f 12/27/21 19/28/21 20/29/21
f 20/29/22 11/30/22 12/27/22
f 98/31/23 99/32/23 23/33/23
f 23/33/24 22/34/24 100/31/24
f 13/35/25 101/31/25 22/34/25
f 22/34/25 21/36/25 13/35/25
f 14/37/26 13/35/26 21/36/26
f 21/36/26 30/38/26 14/37/26
f 15/39/27 102/40/27 103/41/27
f 104/41/27 29/42/27 15/39/27
f 16/43/28 15/39/28 29/42/28
f 29/42/28 28/44/28 16/43/28
f 17/45/29 16/43/29 28/44/29
f 28/44/30 27/46/30 17/45/30
f 18/47/31 17/45/31 27/46/31
f 27/46/31 26/48/31 18/47/31
f 105/49/32 18/47/32 26/48/32
f 26/48/32 25/50/32 106/49/32
f 107/51/33 108/49/33 25/50/33
f 25/50/34 24/52/34 109/51/34
f 110/32/35 111/51/35 24/52/35
f 24/52/35 23/33/35 112/32/35
f 22/34/36 23/33/36 33/3/36
f 33/3/36 32/2/36 22/34/36
f 21/36/37 22/34/37 32/2/37
f 32/2/37 31/6/37 21/36/37
f 30/38/38 21/36/38 31/6/38
f 31/6/39 40/8/39 30/38/39
f 29/42/40 113/41/40 114/11/40
f 115/11/41 39/10/41 29/42/41
f 28/44/42 29/42/42 39/10/42
f 39/10/43 38/14/43 28/44/43
f 27/46/44 28/44/44 38/14/44
f 38/14/45 37/16/45 27/46/45
f 26/48/46 27/46/46 37/16/46
f 37/16/47 36/18/47 26/48/47
f 25/50/48 26/48/48 36/18/48
f 36/18/48 35/20/48 25/50/48
f 24/52/49 25/50/49 35/20/49
f 35/20/50 34/22/50 24/52/50
f 23/33/51 24/52/51 34/22/51
f 34/22/52 33/3/52 23/33/52
f 116/53/19 117/54/19 118/55/19
f 119/55/53 120/24/53 121/53/53
f 122/24/54 123/55/54 124/56/54
f 125/24/19 126/56/19 127/57/19
f 128/24/55 129/57/55 130/58/55
f 131/24/56 132/58/56 133/25/56
f 134/59/57 135/60/57 19/28/57
f 19/28/58 136/61/58 137/59/58
f 138/62/59 139/61/59 19/28/59
f 140/63/58 141/62/58 19/28/58
f 142/64/60 143/63/60 19/28/60
f 12/27/57 144/64/57 19/28/57
f 41/65/61 43/66/61 44/67/61
f 44/67/62 42/68/62 41/65/62
f 45/69/63 46/70/63 145/71/63
f 146/71/63 43/66/63 45/69/63
f 147/72/64 148/71/64 46/70/64
f 149/73/65 150/74/65 45/69/65
f 47/75/66 49/76/66 50/77/66
f 50/77/67 48/78/67 47/75/67
f 51/79/68 52/80/68 151/81/68
f 152/81/68 49/76/68 51/79/68
f 153/82/69 154/81/69 52/80/69
f 155/83/70 156/84/70 51/79/70
f 53/65/71 55/66/71 56/67/71
f 56/67/72 54/68/72 53/65/72
f 57/69/73 58/70/73 157/71/73
f 158/71/74 55/66/74 57/69/74
f 159/72/75 160/71/75 58/70/75
f 161/73/76 162/74/76 57/69/76
f 59/65/77 61/66/77 62/67/77
f 62/67/78 60/68/78 59/65/78
f 63/69/79 64/70/79 163/71/79
f 164/71/80 61/66/80 63/69/80
f 165/72/81 166/71/81 64/70/81
f 167/73/82 168/74/82 63/69/82
f 65/65/83 67/66/83 68/67/83
f 68/67/84 66/68/84 65/65/84
f 69/69/85 70/70/85 169/71/85
f 170/71/86 67/66/86 69/69/86
f 171/72/87 172/71/87 70/70/87
f 173/73/88 174/74/88 69/69/88
f 71/75/89 73/76/89 74/77/89
f 74/77/89 72/78/89 71/75/89
f 75/79/90 76/80/90 175/81/90
f 176/81/90 73/76/90 75/79/90
f 177/82/91 178/81/91 76/80/91
f 179/83/92 180/84/92 75/79/92
f 77/75/93 79/76/93 80/77/93
f 80/77/93 78/78/93 77/75/93
f 81/79/94 82/80/94 181/81/94
f 182/81/94 79/76/94 81/79/94
f 183/82/95 184/81/95 82/80/95
f 185/83/96 186/84/96 81/79/96
f 83/75/97 85/76/97 86/77/97
f 86/77/97 84/78/97 83/75/97
f 87/79/98 88/80/98 187/81/98
f 188/81/98 85/76/98 87/79/98
f 189/82/99 190/81/99 88/80/99
f 191/83/100 192/84/100 87/79/100
