# Blender v2.69 (sub 0) OBJ File: 'StarDome.blend'
# www.blender.org
o Torus
v -0.002991 -0.062634 -1.071603
v -0.002991 0.080103 -1.071603
v 0.192099 -0.062634 -1.052388
v 0.192099 0.080103 -1.052388
v 0.379692 -0.062634 -0.995483
v 0.379692 0.080103 -0.995483
v 0.552579 -0.062634 -0.903073
v 0.552579 0.080103 -0.903073
v 0.704115 -0.062634 -0.778710
v 0.704115 0.080103 -0.778710
v 0.828478 -0.062634 -0.627173
v 0.828478 0.080103 -0.627173
v 0.920888 -0.062634 -0.454287
v 0.920888 0.080103 -0.454287
v 0.977794 -0.062634 -0.266694
v 0.977794 0.080103 -0.266694
v 0.997009 -0.062634 -0.071603
v 0.997009 0.080103 -0.071603
v 0.977794 -0.062634 0.123487
v 0.977794 0.080103 0.123487
v 0.920888 -0.062634 0.311080
v 0.920888 0.080103 0.311080
v 0.828478 -0.062634 0.483967
v 0.828478 0.080103 0.483967
v 0.704115 -0.062634 0.635504
v 0.704115 0.080103 0.635504
v 0.552579 -0.062634 0.759866
v 0.552579 0.080103 0.759866
v 0.379692 -0.062634 0.852276
v 0.379692 0.080103 0.852276
v 0.192099 -0.062634 0.909182
v 0.192099 0.080103 0.909182
v -0.002992 -0.062634 0.928397
v -0.002992 0.080103 0.928397
v -0.198082 -0.062634 0.909182
v -0.198082 0.080103 0.909182
v -0.385675 -0.062634 0.852276
v -0.385675 0.080103 0.852276
v -0.558562 -0.062634 0.759866
v -0.558562 0.080103 0.759866
v -0.710099 -0.062634 0.635503
v -0.710099 0.080103 0.635503
v -0.834461 -0.062634 0.483966
v -0.834461 0.080103 0.483966
v -0.926871 -0.062634 0.311080
v -0.926871 0.080103 0.311080
v -0.983777 -0.062634 0.123486
v -0.983777 0.080103 0.123486
v -1.002991 -0.062634 -0.071604
v -1.002991 0.080103 -0.071604
v -0.983776 -0.062634 -0.266695
v -0.983776 0.080103 -0.266695
v -0.926870 -0.062634 -0.454288
v -0.926870 0.080103 -0.454288
v -0.834460 -0.062634 -0.627174
v -0.834460 0.080103 -0.627174
v -0.710097 -0.062634 -0.778711
v -0.710097 0.080103 -0.778711
v -0.558560 -0.062634 -0.903074
v -0.558560 0.080103 -0.903074
v -0.385673 -0.062634 -0.995483
v -0.385673 0.080103 -0.995483
v -0.198080 -0.062634 -1.052389
v -0.198080 0.080103 -1.052389
vt 1.168018 0.012577
vt 1.251378 0.012559
vt 1.168031 0.928472
vt 1.334732 0.012544
vt 1.251389 0.928391
vt 1.418082 0.012533
vt 1.334742 0.928321
vt 1.501428 0.012525
vt 1.418090 0.928262
vt 1.584770 0.012520
vt 1.501434 0.928214
vt 1.668110 0.012517
vt 1.584775 0.928177
vt 1.751449 0.012516
vt 1.668113 0.928152
vt 1.834786 0.012516
vt 1.751450 0.928138
vt -0.834786 0.013664
vt -0.751294 0.013577
vt -0.834765 0.930981
vt -0.667802 0.013490
vt -0.751274 0.930894
vt -0.584310 0.013405
vt -0.667782 0.930808
vt -0.500818 0.013321
vt -0.584289 0.930721
vt -0.417327 0.013240
vt -0.500798 0.930632
vt -0.333836 0.013161
vt -0.417307 0.930544
vt -0.250347 0.013085
vt -0.333816 0.930452
vt -0.166859 0.013013
vt -0.250327 0.930358
vt -0.083375 0.012946
vt -0.166839 0.930261
vt 0.000107 0.012882
vt -0.083355 0.930161
vt 0.083585 0.012827
vt 0.000127 0.930055
vt 0.167057 0.012778
vt 0.083604 0.929946
vt 0.250523 0.012739
vt 0.167076 0.929833
vt 0.333982 0.012712
vt 0.250541 0.929716
vt 0.417432 0.012697
vt 0.333998 0.929598
vt 0.500871 0.012695
vt 0.417447 0.929478
vt 0.584297 0.012695
vt 0.500885 0.929358
vt 0.667712 0.012688
vt 0.584312 0.929237
vt 0.751118 0.012676
vt 0.667728 0.929116
vt 0.834514 0.012660
vt 0.751133 0.928996
vt 0.917901 0.012641
vt 0.834529 0.928880
vt 1.001281 0.012620
vt 0.917916 0.928769
vt 1.084653 0.012599
vt 1.084667 0.928564
vt 1.001295 0.928663
vt 1.834786 0.928136
vn -0.098017 0.000000 0.995185
vn -0.290285 0.000000 0.956940
vn -0.471396 0.000000 0.881922
vn -0.634394 0.000000 0.773010
vn -0.773010 0.000000 0.634393
vn -0.881921 0.000000 0.471397
vn -0.956940 0.000000 0.290285
vn -0.995185 0.000000 0.098017
vn -0.995185 0.000000 -0.098017
vn -0.956940 0.000000 -0.290285
vn -0.881921 0.000000 -0.471396
vn -0.773010 0.000000 -0.634393
vn -0.634393 0.000000 -0.773010
vn -0.471397 0.000000 -0.881921
vn -0.290284 0.000000 -0.956940
vn -0.098017 0.000000 -0.995185
vn 0.098018 0.000000 -0.995185
vn 0.290285 0.000000 -0.956940
vn 0.471397 0.000000 -0.881921
vn 0.634394 0.000000 -0.773010
vn 0.773011 0.000000 -0.634393
vn 0.881922 0.000000 -0.471396
vn 0.956941 0.000000 -0.290284
vn 0.995185 0.000000 -0.098016
vn 0.995185 0.000000 0.098018
vn 0.956940 0.000000 0.290286
vn 0.881921 0.000000 0.471398
vn 0.773010 0.000000 0.634395
vn 0.634392 0.000000 0.773011
vn 0.471396 0.000000 0.881922
vn 0.098016 0.000000 0.995185
vn 0.290283 0.000000 0.956941
vn -0.098016 0.000000 0.995185
vn -0.471397 0.000000 0.881921
vn -0.634393 0.000000 0.773010
vn -0.634394 0.000000 -0.773010
vn -0.290284 0.000000 -0.956941
vn 0.098017 0.000000 -0.995185
vn 0.773011 0.000000 -0.634392
vn 0.773010 0.000000 0.634394
vn 0.290284 0.000000 0.956941
s off
f 1/1/1 3/2/1 2/3/1
f 3/2/2 5/4/2 4/5/2
f 5/4/3 7/6/3 6/7/3
f 7/6/4 9/8/4 8/9/4
f 9/8/5 11/10/5 10/11/5
f 11/10/6 13/12/6 12/13/6
f 13/12/7 15/14/7 14/15/7
f 15/14/8 17/16/8 16/17/8
f 17/18/9 19/19/9 18/20/9
f 19/19/10 21/21/10 20/22/10
f 21/21/11 23/23/11 22/24/11
f 23/23/12 25/25/12 24/26/12
f 25/25/13 27/27/13 26/28/13
f 27/27/14 29/29/14 28/30/14
f 29/29/15 31/31/15 30/32/15
f 31/31/16 33/33/16 32/34/16
f 33/33/17 35/35/17 34/36/17
f 35/35/18 37/37/18 36/38/18
f 37/37/19 39/39/19 38/40/19
f 39/39/20 41/41/20 40/42/20
f 41/41/21 43/43/21 42/44/21
f 43/43/22 45/45/22 44/46/22
f 45/45/23 47/47/23 46/48/23
f 47/47/24 49/49/24 48/50/24
f 49/49/25 51/51/25 50/52/25
f 51/51/26 53/53/26 52/54/26
f 53/53/27 55/55/27 54/56/27
f 55/55/28 57/57/28 56/58/28
f 57/57/29 59/59/29 58/60/29
f 59/59/30 61/61/30 60/62/30
f 63/63/31 1/1/31 64/64/31
f 61/61/32 63/63/32 62/65/32
f 3/2/33 4/5/33 2/3/33
f 5/4/2 6/7/2 4/5/2
f 7/6/34 8/9/34 6/7/34
f 9/8/35 10/11/35 8/9/35
f 11/10/5 12/13/5 10/11/5
f 13/12/6 14/15/6 12/13/6
f 15/14/7 16/17/7 14/15/7
f 17/16/8 18/66/8 16/17/8
f 19/19/9 20/22/9 18/20/9
f 21/21/10 22/24/10 20/22/10
f 23/23/11 24/26/11 22/24/11
f 25/25/12 26/28/12 24/26/12
f 27/27/36 28/30/36 26/28/36
f 29/29/14 30/32/14 28/30/14
f 31/31/37 32/34/37 30/32/37
f 33/33/16 34/36/16 32/34/16
f 35/35/38 36/38/38 34/36/38
f 37/37/18 38/40/18 36/38/18
f 39/39/19 40/42/19 38/40/19
f 41/41/20 42/44/20 40/42/20
f 43/43/39 44/46/39 42/44/39
f 45/45/22 46/48/22 44/46/22
f 47/47/23 48/50/23 46/48/23
f 49/49/24 50/52/24 48/50/24
f 51/51/25 52/54/25 50/52/25
f 53/53/26 54/56/26 52/54/26
f 55/55/27 56/58/27 54/56/27
f 57/57/40 58/60/40 56/58/40
f 59/59/29 60/62/29 58/60/29
f 61/61/30 62/65/30 60/62/30
f 1/1/31 2/3/31 64/64/31
f 63/63/41 64/64/41 62/65/41
