# Blender v2.69 (sub 0) OBJ File: 'z1Ship.blend'
# www.blender.org
o Cube
v -97.978027 -99.656052 98.099396
v -97.978027 -99.656052 -101.900604
v 102.021973 -99.656052 -101.900604
v 102.021973 -99.656052 98.099396
v -97.978027 100.343948 98.099396
v -97.978027 100.343948 -101.900604
v 102.021973 100.343948 -101.900604
v 102.021973 100.343948 98.099396
vt 0.000000 0.000000
vt 1.000000 0.000000
vt 0.000000 1.000000
vt 1.000000 1.000000
vn 1.000000 0.000000 0.000000
vn 0.000000 0.000000 1.000000
vn -1.000000 0.000000 0.000000
vn 0.000000 0.000000 -1.000000
vn 0.000000 1.000000 0.000000
vn 0.000000 -1.000000 0.000000
s off
f 5/1/1 1/2/1 6/3/1
f 6/1/2 2/2/2 7/3/2
f 7/1/3 3/2/3 8/3/3
f 8/1/4 4/2/4 5/3/4
f 1/1/5 4/2/5 2/3/5
f 8/1/6 5/2/6 7/3/6
f 1/2/1 2/4/1 6/3/1
f 2/2/2 3/4/2 7/3/2
f 3/2/3 4/4/3 8/3/3
f 4/2/4 1/4/4 5/3/4
f 4/2/5 3/4/5 2/3/5
f 5/2/6 6/4/6 7/3/6
