# Blender v2.72 (sub 0) OBJ File: ''
# www.blender.org
o space_frigate_6.001
v -0.006897 -0.644167 -0.359720
v -0.573991 -0.642898 -0.351120
v -0.474578 -0.657945 -1.751390
v -0.028138 -0.658944 -1.758160
v -0.312879 0.559790 -0.823692
v -0.011309 0.559115 -0.828266
v -0.022708 0.373446 -1.552509
v -0.233805 0.373919 -1.549308
v 0.035409 -0.196454 2.363913
v 0.036187 0.150362 2.364001
v -0.222543 0.150941 2.367924
v -0.238118 -0.195842 2.368061
v -0.157678 -0.580123 -3.204256
v -0.185213 -0.207271 -3.203730
v -0.049081 -0.207576 -3.205794
v -0.049917 -0.580364 -3.205889
v 0.037694 -0.247489 2.522095
v -0.272415 -0.246795 2.526798
v -0.532093 -0.556660 1.301301
v 0.018359 -0.557892 1.292953
v -0.191591 -0.626562 -3.361495
v -0.052413 -0.626874 -3.363606
v -0.299628 0.531589 0.947267
v 0.015482 0.530883 0.942488
v 0.002446 0.585176 0.074925
v -0.324734 0.585908 0.079887
v -2.743185 -0.207292 1.985216
v -2.742439 -0.146901 1.993297
v -3.087163 -0.145940 1.257557
v -3.087044 -0.210980 1.244321
v -0.747743 -0.101528 -1.747087
v -0.307821 -0.336527 -3.359649
v -0.760649 -0.400545 1.284335
v -0.800272 -0.474042 -0.349569
v -0.786143 -0.244742 1.630712
v -0.362416 -0.119191 2.528200
v -0.257046 0.201968 2.526695
v -0.785840 -0.109369 1.630747
v -0.550444 0.216173 1.301803
v -0.755041 0.008865 1.370690
v -0.590720 0.216661 -0.256492
v -0.559929 0.005475 -0.733193
v -0.865927 -0.106379 -0.722508
v -0.959393 0.217487 -0.250901
v -0.866136 -0.199610 -0.722532
v -1.564398 -0.023441 1.328128
v -1.339140 -0.101712 -0.684825
v -0.954016 -0.020821 -0.329939
v -1.339283 -0.199491 -0.688684
v -0.493170 0.007273 -1.750915
v -0.215747 -0.160607 -3.360994
v -0.051368 -0.160975 -3.363488
v -0.222144 -0.116142 -2.976726
v -0.045444 -0.116538 -2.979406
v -0.418207 -0.010191 -1.756580
v -0.193322 0.309986 -1.585655
v -0.023393 0.309606 -1.588232
v -0.474381 0.204183 1.307898
v -0.255325 0.482519 1.000952
v -0.281807 0.214578 2.027873
v 0.038700 0.201306 2.522210
v 0.031160 0.213877 2.023127
v 0.016196 0.481911 0.996834
v -1.840870 -0.022621 0.545230
v -0.719748 1.043996 1.409574
v -0.732424 1.044189 0.766527
v -0.769312 1.044271 0.767087
v -0.756637 1.044079 1.410134
v -0.919117 0.216999 1.307394
v -1.741635 0.096061 0.539805
v -1.493217 0.095310 1.301054
v -0.679594 0.216842 -0.182660
v -0.644773 0.216427 1.136624
v -0.866491 0.217260 -0.179826
v -0.831670 0.216846 1.139459
v -0.235719 -0.195887 2.526256
v -0.308699 -0.119011 2.527385
v 0.037808 -0.196500 2.522108
v -0.220144 0.150895 2.526121
v 0.038586 0.150316 2.522197
v -0.311098 -0.118965 2.369189
v -0.160070 -0.580077 -3.361960
v -0.052309 -0.580318 -3.363594
v -0.256634 -0.339116 -3.360427
v -0.187605 -0.207225 -3.361434
v -0.051472 -0.207530 -3.363499
v -0.254243 -0.339161 -3.202721
v 0.418302 -0.659944 -1.764931
v 0.560197 -0.645437 -0.368320
v 0.290262 0.558440 -0.832839
v 0.188390 0.372974 -1.555710
v 0.308936 -0.197066 2.359764
v 0.294917 0.149783 2.360077
v 0.057845 -0.580605 -3.207524
v 0.087051 -0.207881 -3.207859
v 0.568811 -0.559124 1.284606
v 0.347802 -0.248183 2.517392
v 0.086765 -0.627186 -3.365716
v 0.330591 0.530178 0.937710
v 0.329627 0.584443 0.069964
v 2.801167 -0.219703 1.901136
v 3.122382 -0.224880 1.150154
v 3.123193 -0.159843 1.163376
v 2.800936 -0.159310 1.909231
v 0.204295 -0.337674 -3.367415
v 0.693959 -0.104756 -1.768950
v 0.787174 -0.477595 -0.373642
v 0.797444 -0.404033 1.260706
v 0.834127 -0.248369 1.606140
v 0.438376 -0.120984 2.516056
v 0.834430 -0.112996 1.606175
v 0.334447 0.200643 2.517725
v 0.796289 0.005392 1.347163
v 0.590628 0.213619 1.284498
v 0.583635 0.214033 -0.274301
v 0.952308 0.213207 -0.279892
v 0.843136 -0.110204 -0.748427
v 0.537458 0.003018 -0.749835
v 0.842926 -0.203436 -0.748450
v 1.603831 -0.030533 1.280081
v 0.943470 -0.025068 -0.358715
v 1.317290 -0.107658 -0.725110
v 1.316877 -0.205437 -0.728964
v 0.113010 -0.161343 -3.365979
v 0.439877 0.005184 -1.765065
v 0.131256 -0.116933 -2.982086
v 0.364700 -0.011944 -1.768453
v 0.146538 0.309225 -1.590809
v 0.287717 0.481304 0.992716
v 0.514732 0.201968 1.292898
v 0.344126 0.213177 2.018381
v 1.856437 -0.030898 0.489160
v 0.766826 1.040668 1.387030
v 0.803715 1.040586 1.386471
v 0.796886 1.040765 0.743335
v 0.759998 1.040848 0.743894
v 0.959301 0.212794 1.278907
v 1.532394 0.088537 1.255170
v 1.757615 0.088228 0.486738
v 0.679905 0.213462 1.116535
v 0.674707 0.213810 -0.203198
v 0.861604 0.213392 -0.206033
v 0.866802 0.213043 1.113701
v 0.384660 -0.120563 2.516870
v 0.311335 -0.197112 2.517960
v 0.297316 0.149737 2.518273
v 0.382260 -0.120517 2.358674
v 0.055453 -0.580560 -3.365228
v 0.153096 -0.340033 -3.366639
v 0.084659 -0.207835 -3.365563
v 0.155488 -0.340078 -3.208935
vt 0.489329 0.329477
vt 0.489328 0.419322
vt 0.267761 0.400206
vt 0.267761 0.329476
vt 0.162391 0.247822
vt 0.162127 0.295599
vt 0.043676 0.294940
vt 0.043861 0.261500
vt 0.819348 0.215699
vt 0.874288 0.215699
vt 0.874288 0.256605
vt 0.819348 0.258949
vt 0.844315 0.081024
vt 0.785260 0.085519
vt 0.785260 0.064027
vt 0.844315 0.064028
vt 0.952139 0.329481
vt 0.952138 0.378611
vt 0.751291 0.416687
vt 0.751292 0.329478
vt 0.013478 0.351526
vt 0.013478 0.329475
vt 0.443267 0.247229
vt 0.442992 0.297151
vt 0.305277 0.296390
vt 0.305564 0.244556
vt 0.634246 0.311758
vt 0.635061 0.321374
vt 0.506453 0.316228
vt 0.504990 0.305829
vt 0.016437 0.417444
vt 0.275029 0.432080
vt 0.275975 0.530240
vt 0.016213 0.466882
vt 0.496987 0.438969
vt 0.758987 0.428684
vt 0.758401 0.472604
vt 0.499469 0.483618
vt 0.962828 0.413255
vt 0.816896 0.487257
vt 0.967351 0.436712
vt 0.996402 0.481690
vt 0.826049 0.505599
vt 0.827450 0.587838
vt 0.805205 0.546012
vt 0.297138 0.544003
vt 0.379118 0.551177
vt 0.378493 0.602297
vt 0.286467 0.601354
vt 0.439901 0.524232
vt 0.438799 0.537640
vt 0.439585 0.524054
vt 0.499379 0.481985
vt 0.794338 0.644405
vt 0.679892 0.876934
vt 0.348617 0.830529
vt 0.354474 0.701269
vt 0.648206 0.928238
vt 0.947278 0.275558
vt 0.949387 0.296880
vt 0.635057 0.321336
vt 0.362484 0.625838
vt 0.291451 0.738304
vt 0.077396 0.760472
vt 0.569177 0.943286
vt 0.503753 0.980371
vt 0.521928 0.898417
vt 0.017041 0.304601
vt 0.092174 0.303383
vt 0.092451 0.318874
vt 0.017250 0.319366
vt 0.810277 0.572049
vt 0.738504 0.549797
vt 0.540394 0.581304
vt 0.540164 0.538278
vt 0.797043 0.498743
vt 0.802183 0.527396
vt 0.817003 0.487202
vt 0.967238 0.436767
vt 0.256175 0.169826
vt 0.502528 0.186402
vt 0.443222 0.247228
vt 0.008942 0.168055
vt 0.169232 0.151018
vt 0.163071 0.247398
vt 0.044767 0.236446
vt 0.163131 0.247933
vt 0.876061 0.601385
vt 0.901844 0.605051
vt 0.895154 0.665972
vt 0.867499 0.662039
vt 0.913239 0.864961
vt 0.901609 0.862270
vt 0.872751 0.931610
vt 0.866236 0.920023
vt 0.901333 0.862207
vt 0.839311 0.931610
vt 0.839383 0.920023
vt 0.815242 0.897526
vt 0.815249 0.667013
vt 0.843182 0.667014
vt 0.842103 0.897527
vt 0.895750 0.856335
vt 0.020646 0.063096
vt 0.095647 0.023043
vt 0.097687 0.035092
vt 0.032197 0.070066
vt 0.293008 0.052381
vt 0.213946 0.055379
vt 0.097666 0.034965
vt 0.296397 0.099113
vt 0.217532 0.104833
vt 0.209139 0.134955
vt 0.041095 0.134025
vt 0.041333 0.091009
vt 0.209413 0.085373
vt 0.098818 0.044020
vt 0.100291 0.887127
vt 0.327434 0.864811
vt 0.715080 0.159076
vt 0.613211 0.157236
vt 0.613290 0.151392
vt 0.715159 0.153233
vt 0.044252 0.555484
vt 0.142927 0.704910
vt 0.030096 0.647024
vt 0.308793 0.634040
vt 0.135562 0.728091
vt 0.019556 0.502785
vt 0.002002 0.546829
vt 0.019344 0.666585
vt 0.054573 0.497754
vt 0.283318 0.556003
vt 0.077976 0.516735
vt 0.278083 0.585147
vt 0.072741 0.545879
vt 0.669752 0.290005
vt 0.460726 0.286092
vt 0.413741 0.165480
vt 0.414142 0.135873
vt 0.465452 0.017062
vt 0.674478 0.020956
vt 0.703379 0.014517
vt 0.720863 0.151962
vt 0.820098 0.100032
vt 0.840280 0.114336
vt 0.832202 0.120132
vt 0.820050 0.108542
vt 0.840280 0.163466
vt 0.832202 0.163382
vt 0.769185 0.163466
vt 0.769185 0.116612
vt 0.777263 0.122476
vt 0.777263 0.163381
vt 0.814415 0.172660
vt 0.831208 0.172660
vt 0.831208 0.211110
vt 0.814415 0.211110
vt 0.874458 0.172661
vt 0.874458 0.211110
vt 0.728510 0.172660
vt 0.769416 0.172660
vt 0.769416 0.211110
vt 0.728510 0.211110
vt 0.863882 0.015441
vt 0.863881 0.037492
vt 0.856507 0.032514
vt 0.856507 0.015517
vt 0.817978 0.056009
vt 0.818369 0.047898
vt 0.790077 0.041484
vt 0.797452 0.037009
vt 0.790077 0.015441
vt 0.797452 0.015517
vt 0.871713 0.064028
vt 0.871713 0.081025
vt 0.871712 0.122147
vt 0.844315 0.122147
vt 0.871712 0.145730
vt 0.844314 0.145729
vt 0.871712 0.167221
vt 0.844314 0.167221
vt 0.393014 0.659597
vt 0.100512 0.887105
vt 0.163031 0.248020
vt 0.806178 0.096408
vt 0.831500 0.270538
vt 0.020370 0.113018
vt 0.031959 0.113082
vn -0.001700 -0.999500 0.031400
vn -0.367400 -0.929500 -0.030700
vn -0.525200 -0.846600 -0.085900
vn -0.002300 -1.000000 -0.004600
vn -0.502100 0.852100 -0.147600
vn 0.000100 0.990200 -0.139400
vn -0.007400 0.792600 -0.609700
vn -0.303300 0.784700 -0.540600
vn 0.012300 0.706900 0.707200
vn 0.009100 -0.707300 0.706800
vn 0.479400 -0.651100 0.588300
vn 0.317300 0.714300 0.623800
vn 0.439700 0.662100 -0.606800
vn 0.401500 -0.680200 -0.613200
vn -0.012300 -0.706900 -0.707200
vn -0.009100 0.707300 -0.706800
vn 0.010600 -0.614600 0.788800
vn -0.257300 -0.611900 0.747800
vn -0.304100 -0.936300 0.175500
vn 0.000000 -0.988800 0.149200
vn -0.396600 -0.657600 -0.640400
vn -0.012400 -0.699900 -0.714100
vn -0.348200 0.887500 0.301700
vn 0.007900 0.921800 0.387400
vn 0.002500 0.999800 0.016800
vn -0.464500 0.885100 0.028200
vn -0.395900 -0.602100 0.693300
vn -0.383600 0.518600 0.764100
vn -0.815000 0.576600 -0.057200
vn -0.816300 -0.554300 -0.162400
vn -0.915500 0.359900 -0.179900
vn -0.697300 0.009000 -0.716600
vn -0.327400 -0.923900 0.197900
vn -0.408300 -0.878500 -0.247800
vn -0.415100 -0.634200 0.652200
vn -0.604300 -0.088800 0.791700
vn -0.342700 0.654400 0.674000
vn -0.545000 0.576300 0.609000
vn -0.233400 0.923300 0.305000
vn -0.322200 0.695700 0.642000
vn -0.527600 0.828800 -0.186100
vn -0.656500 0.728800 -0.194300
vn -0.509900 0.694100 -0.508100
vn -0.408900 0.804700 -0.430200
vn -0.666700 -0.505200 -0.548000
vn -0.238700 0.903100 0.356800
vn -0.359200 0.594700 -0.719200
vn -0.677400 0.630700 -0.378500
vn -0.404100 -0.465500 -0.787300
vn -0.317100 0.903900 -0.287000
vn -0.338600 0.642900 -0.687000
vn -0.009800 0.665300 -0.746500
vn -0.127400 0.978000 -0.164900
vn -0.000900 0.978800 -0.204700
vn -0.226100 0.850700 -0.474600
vn -0.123700 0.688600 -0.714500
vn -0.007800 0.778300 -0.627900
vn -0.197200 0.932400 0.302900
vn -0.064600 0.836700 0.543700
vn -0.070200 0.993400 0.090800
vn 0.012400 0.698000 0.715900
vn 0.004300 0.990100 0.139800
vn 0.009200 0.880200 0.474400
vn -0.376000 0.920300 -0.107600
vn 0.548300 0.502200 0.668700
vn 0.596200 0.752700 -0.279200
vn -0.603700 0.754900 -0.256100
vn -0.525600 0.502400 0.686500
vn -0.078700 0.798300 0.597100
vn -0.577800 0.797200 -0.174700
vn -0.382400 0.706300 0.595700
vn 0.118400 0.978700 -0.167900
vn 0.379800 0.884500 0.271000
vn -0.118800 0.979800 -0.160800
vn -0.371100 0.880600 0.294500
vn 0.245700 0.541700 0.803800
vn 0.538300 0.118000 0.834400
vn 0.306200 -0.405900 0.861100
vn 0.783800 0.174000 0.596100
vn 0.276300 0.426800 -0.861000
vn 0.567100 -0.029100 -0.823100
vn 0.264100 -0.458400 -0.848600
vn 0.770900 -0.039300 -0.635700
vn 0.518500 -0.848900 -0.101800
vn 0.362100 -0.931200 -0.041800
vn 0.501200 0.849800 -0.162800
vn 0.290300 0.783300 -0.549600
vn -0.295000 0.715700 0.633000
vn -0.464200 -0.649000 0.602600
vn -0.455000 0.664100 -0.593200
vn -0.423000 -0.678400 -0.600700
vn 0.305100 -0.937700 0.166300
vn 0.277200 -0.613100 0.739700
vn 0.374100 -0.659400 -0.652100
vn 0.361200 0.885900 0.291000
vn 0.469100 0.883000 0.014000
vn 0.414000 -0.604000 0.681000
vn 0.808500 -0.557900 -0.187000
vn 0.815500 0.573000 -0.081900
vn 0.408900 0.516900 0.752100
vn 0.675300 0.006000 -0.737400
vn 0.911200 0.355800 -0.207600
vn 0.396600 -0.880300 -0.260000
vn 0.329100 -0.925400 0.187900
vn 0.431900 -0.636100 0.639400
vn 0.627700 -0.091500 0.773100
vn 0.565800 0.573700 0.592200
vn 0.365900 0.652800 0.663300
vn 0.344700 0.694200 0.631900
vn 0.246700 0.922200 0.297700
vn 0.525500 0.826400 -0.202100
vn 0.399300 0.802900 -0.442500
vn 0.497400 0.691900 -0.523300
vn 0.653600 0.725900 -0.214100
vn 0.647500 -0.508100 -0.567900
vn 0.253400 0.902000 0.349300
vn 0.668400 0.627700 -0.398900
vn 0.339900 0.593200 -0.729800
vn 0.378000 -0.467300 -0.799200
vn 0.320500 0.641500 -0.697000
vn 0.312400 0.902500 -0.296500
vn 0.126700 0.977400 -0.168800
vn 0.215400 0.849700 -0.481300
vn 0.105000 0.688100 -0.718000
vn 0.084800 0.836400 0.541500
vn 0.210500 0.931500 0.296700
vn 0.077300 0.993000 0.088500
vn 0.376700 0.918600 -0.119000
vn -0.525500 0.504500 0.685000
vn 0.548400 0.500000 0.670200
vn 0.599000 0.752300 -0.274300
vn -0.601000 0.755400 -0.261000
vn 0.100300 0.797900 0.594400
vn 0.403500 0.704500 0.583800
vn 0.575800 0.794600 -0.192200
vn -0.367500 0.886100 0.282300
vn -0.119000 0.979200 -0.164300
vn 0.118300 0.979200 -0.164400
vn 0.383800 0.879000 0.283000
vn -0.512200 0.120300 0.850400
vn -0.218800 0.542800 0.810800
vn -0.281800 -0.404600 0.870000
vn -0.764500 0.177500 0.619600
vn -0.300300 0.428100 -0.852300
vn -0.591900 -0.026500 -0.805500
vn -0.291700 -0.457200 -0.840100
vn -0.790000 -0.035800 -0.612000
s 1
f 1/1/1 2/2/2 3/3/3
f 4/4/4 1/1/1 3/3/3
f 5/5/5 6/6/6 7/7/7
f 7/7/7 8/8/8 5/5/5
f 9/9/9 10/10/10 11/11/11
f 11/11/11 12/12/12 9/9/9
f 13/13/13 14/14/14 15/15/15
f 15/15/15 16/16/16 13/13/13
f 17/17/17 18/18/18 19/19/19
f 19/19/19 20/20/20 17/17/17
f 20/20/20 19/19/19 2/2/2
f 2/2/2 1/1/1 20/20/20
f 21/21/21 22/22/22 4/4/4
f 3/3/3 21/21/21 4/4/4
f 23/23/23 24/24/24 25/25/25
f 25/25/25 26/26/26 23/23/23
f 27/27/27 28/28/28 29/29/29
f 29/29/29 30/30/30 27/27/27
f 21/31/21 3/32/3 31/33/31
f 32/34/32 21/31/21 31/33/31
f 2/35/2 19/36/19 33/37/33
f 33/37/33 34/38/34 2/35/2
f 19/36/19 18/39/18 35/40/35
f 35/40/35 33/37/33 19/36/19
f 36/41/36 37/42/37 38/43/38
f 37/42/37 39/44/39 40/45/40
f 40/45/40 38/43/38 37/42/37
f 41/46/41 42/47/42 43/48/43
f 43/48/43 44/49/44 41/46/41
f 31/33/31 3/32/3 45/50/45
f 45/50/45 43/51/43 31/33/31
f 45/52/45 3/32/3 2/35/2
f 2/35/2 34/53/34 45/52/45
f 34/54/34 33/55/33 27/56/27
f 27/56/27 30/57/30 34/54/34
f 33/55/33 35/58/35 27/56/27
f 35/59/35 38/60/38 28/61/28
f 28/61/28 27/27/27 35/59/35
f 38/62/38 46/63/46 28/64/28
f 43/65/43 47/66/47 48/67/48
f 45/68/45 49/69/49 47/70/47
f 47/70/47 43/71/43 45/68/45
f 45/72/45 34/54/34 49/73/49
f 31/74/31 50/75/50 51/76/51
f 51/76/51 32/77/32 31/74/31
f 35/78/35 18/39/18 36/79/36
f 36/79/36 38/43/38 35/78/35
f 41/80/41 39/81/39 23/82/23
f 23/82/23 26/26/26 41/80/41
f 50/83/50 42/84/42 5/85/5
f 5/85/5 8/86/8 50/83/50
f 41/80/41 26/26/26 5/87/5
f 5/5/5 26/26/26 25/25/25
f 25/25/25 6/6/6 5/5/5
f 52/88/52 51/89/51 53/90/53
f 53/90/53 54/91/54 52/88/52
f 51/89/51 50/92/50 55/93/55
f 55/93/55 53/90/53 51/89/51
f 50/92/50 8/94/8 56/95/56
f 56/95/56 55/96/55 50/92/50
f 8/94/8 7/97/7 57/98/57
f 57/98/57 56/95/56 8/94/8
f 57/99/57 54/100/54 53/101/53
f 53/101/53 56/102/56 57/99/57
f 55/103/55 56/102/56 53/101/53
f 23/104/23 39/105/39 58/106/58
f 58/106/58 59/107/59 23/104/23
f 39/105/39 37/108/37 60/109/60
f 60/109/60 58/110/58 39/105/39
f 37/108/37 61/111/61 62/112/62
f 62/112/62 60/109/60 37/108/37
f 62/113/62 63/114/63 59/115/59
f 59/115/59 60/116/60 62/113/62
f 58/117/58 60/116/60 59/115/59
f 29/118/29 28/64/28 46/63/46
f 46/63/46 64/119/64 29/118/29
f 65/120/65 66/121/66 67/122/67
f 67/122/67 68/123/68 65/120/65
f 69/124/69 44/49/44 70/125/70
f 70/125/70 71/126/71 69/124/69
f 48/127/48 64/128/64 70/125/70
f 70/125/70 44/49/44 48/127/48
f 39/129/39 69/124/69 40/130/40
f 40/130/40 69/124/69 71/126/71
f 71/126/71 46/131/46 40/130/40
f 39/132/39 41/46/41 72/133/72
f 72/133/72 73/134/73 39/132/39
f 41/46/41 44/49/44 74/135/74
f 74/135/74 72/133/72 41/46/41
f 44/49/44 69/124/69 75/136/75
f 75/136/75 74/135/74 44/49/44
f 69/124/69 39/132/39 73/134/73
f 73/134/73 75/136/75 69/124/69
f 73/137/73 72/138/72 66/121/66
f 66/121/66 65/120/65 73/137/73
f 72/139/72 74/140/74 67/122/67
f 67/122/67 66/121/66 72/139/72
f 74/141/74 75/142/75 68/123/68
f 68/123/68 67/122/67 74/141/74
f 75/142/75 73/143/73 65/144/65
f 65/144/65 68/123/68 75/142/75
f 47/66/47 64/119/64 48/67/48
f 30/30/30 29/29/29 47/70/47
f 47/70/47 49/69/49 30/30/30
f 34/54/34 30/57/30 49/73/49
f 36/145/36 18/146/18 76/147/76
f 76/147/76 77/148/77 36/145/36
f 18/146/18 17/149/17 78/150/9
f 78/150/9 76/147/76 18/146/18
f 61/151/61 37/152/37 79/153/78
f 79/153/78 80/154/10 61/151/61
f 37/152/37 36/145/36 77/148/77
f 77/148/77 79/153/78 37/152/37
f 77/155/77 76/156/76 12/157/12
f 12/157/12 81/158/79 77/155/77
f 76/156/76 78/159/9 9/160/9
f 9/160/9 12/157/12 76/156/76
f 80/161/10 79/162/78 11/163/11
f 11/163/11 10/164/10 80/161/10
f 79/162/78 77/155/77 81/158/79
f 81/158/79 11/163/11 79/162/78
f 22/165/22 21/166/21 82/167/80
f 82/167/80 83/168/16 22/165/22
f 21/166/21 32/169/32 84/170/81
f 82/167/80 21/166/21 84/170/81
f 32/169/32 51/171/51 85/172/82
f 85/172/82 84/170/81 32/169/32
f 51/171/51 52/173/52 86/174/15
f 86/174/15 85/172/82 51/171/51
f 83/175/16 82/176/80 13/13/13
f 13/13/13 16/16/16 83/175/16
f 82/176/80 84/177/81 87/178/83
f 87/178/83 13/13/13 82/176/80
f 84/177/81 85/179/82 14/180/14
f 14/180/14 87/178/83 84/177/81
f 85/179/82 86/181/15 15/182/15
f 15/182/15 14/180/14 85/179/82
f 50/75/50 31/74/31 43/48/43
f 43/48/43 42/47/42 50/75/50
f 38/62/38 40/183/40 46/63/46
f 47/66/47 29/184/29 64/119/64
f 64/128/64 46/131/46 71/126/71
f 71/126/71 70/125/70 64/128/64
f 43/48/43 48/127/48 44/49/44
f 42/84/42 41/80/41 5/185/5
f 13/13/13 87/186/83 14/14/14
f 11/11/11 81/187/79 12/12/12
f 24/188/24 23/104/23 59/107/59
f 59/107/59 63/189/63 24/188/24
f 1/1/1 4/4/4 88/3/84
f 89/2/85 1/1/1 88/3/84
f 90/5/86 91/8/87 7/7/7
f 7/7/7 6/6/6 90/5/86
f 9/9/9 92/12/88 93/11/89
f 93/11/89 10/10/10 9/9/9
f 94/13/90 16/16/16 15/15/15
f 15/15/15 95/14/91 94/13/90
f 17/17/17 20/20/20 96/19/92
f 96/19/92 97/18/93 17/17/17
f 20/20/20 1/1/1 89/2/85
f 89/2/85 96/19/92 20/20/20
f 98/21/94 88/3/84 4/4/4
f 4/4/4 22/22/22 98/21/94
f 99/23/95 100/26/96 25/25/25
f 25/25/25 24/24/24 99/23/95
f 101/27/97 102/30/98 103/29/99
f 103/29/99 104/28/100 101/27/97
f 98/31/94 105/34/101 106/33/102
f 106/33/102 88/32/84 98/31/94
f 89/35/85 107/38/103 108/37/104
f 108/37/104 96/36/92 89/35/85
f 96/36/92 108/37/104 109/40/105
f 109/40/105 97/39/93 96/36/92
f 110/41/106 111/43/107 112/42/108
f 112/42/108 111/43/107 113/45/109
f 113/45/109 114/44/110 112/42/108
f 115/46/111 116/49/112 117/48/113
f 117/48/113 118/47/114 115/46/111
f 106/33/102 117/51/113 119/50/115
f 119/50/115 88/32/84 106/33/102
f 119/52/115 107/53/103 89/35/85
f 89/35/85 88/32/84 119/52/115
f 107/54/103 102/57/98 101/56/97
f 101/56/97 108/55/104 107/54/103
f 108/55/104 101/56/97 109/58/105
f 109/59/105 101/27/97 104/61/100
f 104/61/100 111/60/107 109/59/105
f 111/62/107 104/64/100 120/63/116
f 117/65/113 121/67/117 122/66/118
f 119/68/115 117/71/113 122/70/118
f 122/70/118 123/69/119 119/68/115
f 119/72/115 123/73/119 107/54/103
f 106/74/102 105/77/101 124/76/120
f 124/76/120 125/75/121 106/74/102
f 109/78/105 111/43/107 110/79/106
f 110/79/106 97/39/93 109/78/105
f 115/80/111 100/26/96 99/82/95
f 99/82/95 114/81/110 115/80/111
f 125/83/121 91/86/87 90/85/86
f 90/85/86 118/84/114 125/83/121
f 115/80/111 90/87/86 100/26/96
f 90/5/86 6/6/6 25/25/25
f 25/25/25 100/26/96 90/5/86
f 52/88/52 54/91/54 126/90/122
f 126/90/122 124/89/120 52/88/52
f 124/89/120 126/90/122 127/93/123
f 127/93/123 125/92/121 124/89/120
f 125/92/121 127/96/123 128/95/124
f 128/95/124 91/94/87 125/92/121
f 91/94/87 128/95/124 57/98/57
f 57/98/57 7/97/7 91/94/87
f 57/99/57 128/102/124 126/101/122
f 126/101/122 54/100/54 57/99/57
f 127/103/123 126/101/122 128/102/124
f 99/104/95 129/107/125 130/106/126
f 130/106/126 114/105/110 99/104/95
f 114/105/110 130/110/126 131/109/127
f 131/109/127 112/108/108 114/105/110
f 112/108/108 131/109/127 62/112/62
f 62/112/62 61/111/61 112/108/108
f 62/113/62 131/116/127 129/115/125
f 129/115/125 63/114/63 62/113/62
f 130/117/126 129/115/125 131/116/127
f 103/118/99 132/119/128 120/63/116
f 120/63/116 104/64/100 103/118/99
f 133/120/129 134/123/130 135/122/131
f 135/122/131 136/121/132 133/120/129
f 137/124/133 138/126/134 139/125/135
f 139/125/135 116/49/112 137/124/133
f 121/127/117 116/49/112 139/125/135
f 139/125/135 132/128/128 121/127/117
f 114/129/110 113/130/109 137/124/133
f 113/130/109 120/131/116 138/126/134
f 138/126/134 137/124/133 113/130/109
f 114/132/110 140/134/136 141/133/137
f 141/133/137 115/46/111 114/132/110
f 115/46/111 141/133/137 142/135/138
f 142/135/138 116/49/112 115/46/111
f 116/49/112 142/135/138 143/136/139
f 143/136/139 137/124/133 116/49/112
f 137/124/133 143/136/139 140/134/136
f 140/134/136 114/132/110 137/124/133
f 140/137/136 133/120/129 136/121/132
f 136/121/132 141/138/137 140/137/136
f 141/139/137 136/121/132 135/122/131
f 135/122/131 142/140/138 141/139/137
f 142/141/138 135/122/131 134/123/130
f 134/123/130 143/142/139 142/141/138
f 143/142/139 134/123/130 133/144/129
f 133/144/129 140/143/136 143/142/139
f 122/66/118 121/67/117 132/119/128
f 102/30/98 123/69/119 122/70/118
f 122/70/118 103/29/99 102/30/98
f 107/54/103 123/73/119 102/57/98
f 110/145/106 144/148/140 145/147/141
f 145/147/141 97/146/93 110/145/106
f 97/146/93 145/147/141 78/150/9
f 78/150/9 17/149/17 97/146/93
f 61/151/61 80/154/10 146/153/142
f 146/153/142 112/152/108 61/151/61
f 112/152/108 146/153/142 144/148/140
f 144/148/140 110/145/106 112/152/108
f 144/155/140 147/158/143 92/157/88
f 92/157/88 145/156/141 144/155/140
f 145/156/141 92/157/88 9/160/9
f 9/160/9 78/159/9 145/156/141
f 80/161/10 10/164/10 93/163/89
f 93/163/89 146/162/142 80/161/10
f 146/162/142 93/163/89 147/158/143
f 147/158/143 144/155/140 146/162/142
f 22/165/22 83/168/16 148/167/144
f 148/167/144 98/166/94 22/165/22
f 98/166/94 148/167/144 149/170/145
f 149/170/145 105/169/101 98/166/94
f 105/169/101 149/170/145 150/172/146
f 150/172/146 124/171/120 105/169/101
f 124/171/120 150/172/146 86/174/15
f 86/174/15 52/173/52 124/171/120
f 83/175/16 16/16/16 94/13/90
f 94/13/90 148/176/144 83/175/16
f 148/176/144 94/13/90 151/178/147
f 151/178/147 149/177/145 148/176/144
f 149/177/145 151/178/147 95/180/91
f 95/180/91 150/179/146 149/177/145
f 150/179/146 95/180/91 15/182/15
f 15/182/15 86/181/15 150/179/146
f 125/75/121 118/47/114 117/48/113
f 117/48/113 106/74/102 125/75/121
f 111/62/107 120/63/116 113/183/109
f 122/66/118 132/119/128 103/184/99
f 132/128/128 139/125/135 138/126/134
f 138/126/134 120/131/116 132/128/128
f 117/48/113 116/49/112 121/127/117
f 118/84/114 90/185/86 115/80/111
f 94/13/90 95/14/91 151/186/147
f 93/11/89 92/12/88 147/187/143
f 24/188/24 63/189/63 129/107/125
f 129/107/125 99/104/95 24/188/24
