# Blender v2.69 (sub 0) OBJ File: ''
# www.blender.org
o Rock_3.001
v -0.630769 -0.615696 0.914257
v -0.544827 -0.521245 -0.795011
v 0.673272 -0.568199 -0.687398
v 0.540545 -0.581126 0.970397
v -0.485909 0.280302 1.187429
v -0.678170 0.388480 -0.868746
v 0.607837 0.318957 -0.861692
v 0.487574 0.433675 0.842945
v -0.576900 -0.155305 1.192875
v -0.648562 0.558255 0.224687
v -0.749520 -0.032053 -0.953928
v -0.608124 -0.664647 -0.004475
v 0.045754 0.426853 -1.032216
v 0.721538 -0.031719 -0.916909
v 0.135781 -0.688035 -0.743969
v 0.614962 0.469120 0.038445
v 0.439567 -0.017225 1.051965
v 0.661922 -0.649435 0.189699
v 0.033153 0.509417 1.029707
v 0.114422 -0.650918 0.976953
v -0.824050 -0.160331 0.272043
v 0.052086 -0.048389 -0.986982
v 0.696285 -0.112668 0.101486
v -0.052399 -0.051857 1.125731
v 0.002702 -0.682545 -0.007992
v 0.003342 0.647673 -0.002312
v -0.619355 0.055605 1.156223
v -0.635204 0.513226 -0.346248
v -0.670517 -0.322100 -1.008151
v -0.567741 -0.640295 0.558261
v 0.346982 0.383022 -0.981998
v 0.702162 -0.275078 -0.850446
v -0.232238 -0.648041 -0.824787
v 0.568091 0.556476 0.543959
v 0.484285 -0.358761 1.078013
v 0.614750 -0.591850 -0.336254
v -0.270571 0.420456 1.083678
v 0.318288 -0.783831 0.977387
v -0.685492 -0.395990 1.102668
v -0.596447 0.379145 0.811078
v -0.724598 0.249950 -0.918053
v -0.472174 -0.738114 -0.515222
v -0.319130 0.460403 -0.942304
v 0.633501 0.203143 -0.947868
v 0.432801 -0.619579 -0.735275
v 0.582852 0.573667 -0.509444
v 0.515222 0.209116 1.046708
v 0.618010 -0.666363 0.711237
v 0.252725 0.475566 1.040219
v -0.292010 -0.625550 1.018302
v -0.749832 -0.421088 0.166028
v -0.779451 0.178156 0.281735
v -0.726421 -0.129183 0.790760
v -0.823148 -0.117902 -0.249300
v 0.103155 -0.386518 -0.958628
v 0.040221 0.247210 -1.021145
v -0.371117 -0.034926 -0.978277
v 0.412267 -0.054442 -0.925844
v 0.688583 -0.369327 0.073814
v 0.678429 0.197654 0.098984
v 0.678176 -0.038860 -0.497963
v 0.697554 -0.021011 0.546587
v 0.050303 -0.345871 1.033920
v 0.001464 0.212150 1.088982
v 0.279286 -0.033582 1.099951
v -0.348214 -0.113163 1.144267
v 0.367118 -0.688909 0.042664
v -0.252406 -0.697268 0.014009
v 0.043306 -0.706897 0.514410
v 0.060111 -0.723585 -0.504241
v -0.326255 0.608114 0.085132
v 0.322927 0.631043 0.015539
v 0.004963 0.605988 0.505993
v 0.035970 0.646940 -0.496718
v -0.729703 -0.380402 -0.345816
v 0.430072 -0.331534 -0.877634
v 0.745759 -0.401266 0.588852
v -0.350877 -0.354912 1.077998
v 0.377797 -0.667668 -0.441649
v -0.292084 0.598470 -0.419069
v -0.757564 -0.454010 0.675039
v -0.696308 0.061620 0.812397
v -0.779286 0.187657 -0.271731
v -0.299527 -0.370120 -1.019366
v -0.388491 0.275326 -0.948000
v 0.357047 0.200919 -0.979724
v 0.681746 -0.319651 -0.441220
v 0.626065 0.261180 -0.503648
v 0.625449 0.275694 0.537013
v 0.364435 -0.343254 1.123807
v 0.252961 0.221451 1.050421
v -0.285333 0.132706 1.121777
v 0.429329 -0.765568 0.565534
v -0.349864 -0.717533 0.514621
v -0.296714 -0.703936 -0.521987
v -0.301700 0.506016 0.638737
v 0.292432 0.581173 0.523317
v 0.322354 0.600512 -0.504354
vt 0.619485 0.609793
vt 0.616230 0.504911
vt 0.665202 0.491750
vt 0.620207 0.344590
vt 0.610500 0.305666
vt 0.667362 0.346340
vt 0.624218 0.078662
vt 0.612958 0.000092
vt 0.684298 0.072814
vt 0.000092 0.439212
vt 0.013489 0.382911
vt 0.042196 0.450567
vt 0.730123 0.331931
vt 0.720662 0.287497
vt 0.414494 0.435841
vt 0.491770 0.451603
vt 0.399682 0.489593
vt 0.613327 0.777709
vt 0.617830 0.693795
vt 0.665199 0.675277
vt 0.524067 0.792533
vt 0.516220 0.702300
vt 0.571733 0.706550
vt 0.524091 0.612821
vt 0.528825 0.509555
vt 0.573371 0.622226
vt 0.624172 0.449870
vt 0.626498 0.392143
vt 0.672946 0.389619
vt 0.530180 0.458951
vt 0.538857 0.399400
vt 0.579334 0.398977
vt 0.545427 0.356148
vt 0.546803 0.318703
vt 0.577339 0.310114
vt 0.617937 0.243610
vt 0.622831 0.161837
vt 0.676713 0.159406
vt 0.528756 0.258230
vt 0.531971 0.162421
vt 0.581617 0.159126
vt 0.514255 0.092465
vt 0.517171 0.007821
vt 0.555620 0.006160
vt 0.070458 0.281290
vt 0.068935 0.340722
vt 0.018806 0.268223
vt 0.161198 0.317038
vt 0.153319 0.356239
vt 0.110679 0.359171
vt 0.134849 0.399487
vt 0.115582 0.450558
vt 0.079805 0.452541
vt 0.883203 0.280625
vt 0.804176 0.312513
vt 0.875321 0.226074
vt 0.906468 0.405202
vt 0.824181 0.424842
vt 0.811498 0.370625
vt 0.744890 0.435430
vt 0.668055 0.438754
vt 0.250259 0.418042
vt 0.337233 0.432201
vt 0.213120 0.461810
vt 0.282556 0.327265
vt 0.361520 0.333876
vt 0.357275 0.383101
vt 0.439811 0.346403
vt 0.507595 0.361996
vt 0.430544 0.388096
vt 0.725765 0.608485
vt 0.571621 0.513396
vt 0.581434 0.348821
vt 0.563196 0.088779
vt 0.055558 0.398648
vt 0.021644 0.323422
vt 0.094859 0.404362
vt 0.794844 0.258732
vt 0.734829 0.381687
vt 0.309070 0.480391
vt 0.502332 0.400440
vt 0.659034 0.762539
vt 0.642301 0.842728
vt 0.596329 0.848546
vt 0.556453 0.854102
vt 0.569808 0.786028
vt 0.518555 0.851454
vt 0.472127 0.846015
vt 0.468372 0.788462
vt 0.450870 0.686657
vt 0.468357 0.592631
vt 0.486656 0.503214
vt 0.575007 0.458884
vt 0.503554 0.316150
vt 0.664188 0.238487
vt 0.574719 0.253136
vt 0.479903 0.265785
vt 0.477861 0.168885
vt 0.468060 0.093401
vt 0.480772 0.007611
vt 0.079269 0.236312
vt 0.131802 0.258043
vt 0.121114 0.307448
vt 0.165262 0.275848
vt 0.199869 0.285521
vt 0.200512 0.323185
vt 0.199898 0.357085
vt 0.180637 0.402540
vt 0.159584 0.452856
vt 0.960679 0.261832
vt 0.948926 0.216525
vt 0.970299 0.317198
vt 0.891060 0.343519
vt 0.984047 0.376486
vt 0.999908 0.433067
vt 0.924804 0.456300
vt 0.842683 0.474799
vt 0.762161 0.488171
vt 0.279677 0.372230
vt 0.284773 0.283842
vt 0.359222 0.275277
vt 0.449005 0.306895
vt 0.657264 0.305126
vt 0.669991 0.000092
vt 0.024859 0.222713
vn -0.896329 -0.432783 -0.096255
vn -0.577410 -0.322642 -0.749962
vn -0.569659 -0.749443 -0.337291
vn 0.176916 -0.318522 -0.931242
vn 0.750969 -0.294382 -0.591052
vn 0.233619 -0.795129 -0.559587
vn 0.979186 -0.137303 0.149358
vn 0.632069 -0.054262 0.772973
vn 0.688620 -0.676778 0.260231
vn -0.667531 -0.717399 0.199316
vn -0.030488 -0.721824 0.691366
vn -0.705832 -0.189001 0.682638
vn 0.248756 -0.964721 -0.086154
vn 0.725730 -0.682424 -0.087008
vn -0.198828 0.966643 -0.161412
vn -0.176122 0.690848 -0.701193
vn -0.639637 0.762719 -0.095401
vn -0.922269 -0.362499 0.134129
vn -0.933927 -0.356182 -0.029969
vn -0.586413 -0.808283 -0.052431
vn -0.947295 0.202765 0.247902
vn -0.963836 0.246437 0.101321
vn -0.989746 -0.104587 0.097201
vn -0.963591 0.266488 -0.021393
vn -0.708029 0.263161 -0.655293
vn -0.994751 -0.089969 -0.048097
vn 0.032014 -0.237678 -0.970794
vn 0.180059 -0.312418 -0.932707
vn 0.144475 -0.859188 -0.490768
vn -0.110752 0.063753 -0.991791
vn -0.025605 -0.093966 -0.995239
vn 0.056612 -0.082034 -0.994995
vn 0.109287 -0.096835 -0.989257
vn 0.661458 0.257332 -0.704428
vn 0.776025 -0.014222 -0.630512
vn 0.993652 -0.112247 0.005493
vn 0.997284 -0.069369 -0.024628
vn 0.740165 -0.672384 -0.002564
vn 0.986358 0.163335 -0.019990
vn 0.991699 0.127323 0.017151
vn 0.999390 0.033174 -0.010468
vn 0.969909 0.166143 0.177923
vn 0.654439 0.199347 0.729331
vn 0.641224 0.013153 0.767235
vn 0.115787 -0.124882 0.985382
vn -0.073611 -0.268838 0.960356
vn 0.060945 -0.833766 0.548723
vn 0.175390 0.201300 0.963683
vn 0.088595 0.133366 0.987091
vn 0.045076 -0.027558 0.998596
vn 0.095737 0.109775 0.989319
vn -0.670339 0.181127 0.719565
vn -0.386639 -0.132145 0.912687
vn 0.262429 -0.963408 -0.054292
vn 0.104862 -0.992767 -0.058077
vn -0.173956 -0.983917 0.040407
vn -0.036988 -0.999207 0.013703
vn 0.009095 -0.999847 0.014374
vn -0.039979 -0.987762 -0.150670
vn -0.112644 -0.826472 -0.551530
vn -0.258644 0.946532 0.192694
vn -0.122715 0.988372 0.089602
vn -0.665181 0.683950 0.299448
vn 0.115604 0.987304 0.108676
vn 0.274911 0.961089 0.026154
vn -0.030580 0.998627 0.041902
vn 0.151769 0.970519 -0.187201
vn 0.246254 0.534562 -0.808405
vn -0.011933 0.977783 -0.209235
vn -0.294229 -0.928709 -0.225562
vn -0.728813 0.026704 -0.684164
vn 0.093295 -0.169469 -0.981079
vn 0.964507 0.182257 0.191015
vn 0.102054 -0.227546 0.968383
vn -0.198065 -0.647053 0.736229
vn 0.148167 -0.123112 0.981262
vn 0.052583 -0.996887 -0.058382
vn -0.596789 0.790857 0.135502
vn 0.020508 0.534165 -0.845119
vn -0.473373 -0.877132 0.080691
vn -0.967406 0.043855 0.249306
vn -0.130284 0.267190 0.954772
vn -0.608234 0.650868 -0.454268
vn -0.021973 0.088168 -0.995849
vn 0.771447 0.517594 -0.370037
vn 0.993896 0.098605 0.049074
vn 0.625416 0.769463 -0.129368
vn 0.791864 0.610340 0.020173
vn 0.635090 0.762413 0.123844
vn 0.619526 0.578143 0.530900
vn 0.140385 0.122410 0.982482
vn 0.326243 0.571886 0.752647
vn -0.019044 0.759301 0.650410
vn -0.155492 0.675008 0.721213
vn 0.766991 -0.340953 0.543504
vn -0.087283 -0.996094 0.012299
vn -0.091708 0.987121 0.130955
vn 0.739586 -0.608600 -0.287332
s 1
f 75/1/1 29/2/2 2/3/3
f 76/4/4 32/5/5 45/6/6
f 77/7/7 35/8/8 48/9/9
f 1/10/10 50/11/11 39/12/12
f 79/13/13 45/6/6 36/14/14
f 80/15/15 43/16/16 28/17/17
f 81/18/18 51/19/19 12/20/20
f 82/21/21 52/22/22 21/23/23
f 83/24/24 41/25/25 54/26/26
f 84/27/27 55/28/28 15/29/29
f 85/30/30 56/31/31 22/32/32
f 86/33/33 44/34/34 14/35/35
f 87/36/36 59/37/37 18/38/38
f 88/39/39 60/40/40 23/41/41
f 89/42/42 47/43/43 17/44/44
f 90/45/45 63/46/46 38/47/47
f 91/48/48 64/49/49 24/50/50
f 92/51/51 27/52/52 9/53/53
f 93/54/54 67/55/55 48/56/9
f 94/57/56 68/58/57 25/59/58
f 95/60/59 33/61/60 15/29/29
f 96/62/61 71/63/62 40/64/63
f 97/65/64 72/66/65 26/67/66
f 98/68/67 31/69/68 74/70/69
f 51/19/19 75/1/1 42/71/70
f 21/23/23 54/26/26 75/1/1
f 54/26/26 11/72/71 29/2/2
f 55/28/28 76/4/4 15/29/29
f 22/32/32 58/73/72 76/4/4
f 58/73/72 14/35/35 76/4/4
f 59/37/37 77/7/7 48/9/9
f 23/41/41 62/74/73 59/37/37
f 62/74/73 17/44/44 77/7/7
f 63/46/46 78/75/74 20/76/75
f 24/50/50 66/77/76 63/46/46
f 66/77/76 9/53/53 39/12/12
f 67/55/55 79/13/13 18/78/38
f 25/59/58 70/79/77 67/55/55
f 70/79/77 15/29/29 45/6/6
f 71/63/62 80/15/15 10/80/78
f 26/67/66 74/70/69 71/63/62
f 74/70/69 13/81/79 80/15/15
f 30/82/80 1/83/10 39/84/12
f 9/85/53 53/86/81 81/18/18
f 53/86/81 21/23/23 51/19/19
f 27/87/52 82/21/21 9/85/53
f 5/88/82 40/89/63 82/21/21
f 40/89/63 10/90/78 82/21/21
f 52/22/22 83/24/24 21/23/23
f 10/90/78 28/91/17 52/22/22
f 28/91/17 6/92/83 83/24/24
f 29/2/2 84/27/27 33/61/60
f 11/72/71 57/93/84 84/27/27
f 57/93/84 22/32/32 55/28/28
f 41/25/25 85/30/30 11/72/71
f 6/92/83 43/16/16 41/25/25
f 43/16/16 13/81/79 85/30/30
f 56/31/31 86/33/33 58/73/72
f 13/81/79 31/69/68 86/33/33
f 31/69/68 7/94/85 44/34/34
f 32/5/5 87/36/36 36/95/14
f 14/35/35 61/96/86 87/36/36
f 61/96/86 23/41/41 59/37/37
f 44/34/34 88/39/39 14/35/35
f 7/94/85 46/97/87 88/39/39
f 46/97/87 16/98/88 60/40/40
f 60/40/40 89/42/42 23/41/41
f 16/98/88 34/99/89 60/40/40
f 34/99/89 8/100/90 47/43/43
f 35/101/8 90/45/45 38/47/47
f 17/102/44 65/103/91 35/101/8
f 65/103/91 24/50/50 90/45/45
f 47/104/43 91/48/48 65/103/91
f 8/105/90 49/106/92 91/48/48
f 49/106/92 19/107/93 64/49/49
f 64/49/49 92/51/51 66/77/76
f 19/107/93 37/108/94 92/51/51
f 37/108/94 5/109/82 27/52/52
f 38/110/47 93/54/54 4/111/95
f 20/112/75 69/113/96 38/110/47
f 69/113/96 25/59/58 93/54/54
f 50/114/11 94/57/56 20/112/75
f 1/115/10 30/116/80 50/114/11
f 30/116/80 12/117/20 68/58/57
f 68/58/57 95/60/59 70/79/77
f 12/117/20 42/118/70 95/60/59
f 42/118/70 2/3/3 95/60/59
f 37/108/94 96/62/61 5/109/82
f 19/107/93 73/119/97 37/108/94
f 73/119/97 26/67/66 96/62/61
f 49/106/92 97/65/64 73/119/97
f 8/105/90 34/120/89 49/106/92
f 34/120/89 16/121/88 97/65/64
f 72/66/65 98/68/67 26/67/66
f 16/121/88 46/122/87 98/68/67
f 46/122/87 7/94/85 31/69/68
f 42/71/70 75/1/1 2/3/3
f 32/5/5 3/123/98 45/6/6
f 35/8/8 4/124/95 48/9/9
f 50/11/11 78/75/74 39/12/12
f 45/6/6 3/123/98 36/14/14
f 43/16/16 6/92/83 28/17/17
f 30/82/80 81/18/18 12/20/20
f 53/86/81 82/21/21 21/23/23
f 41/25/25 11/72/71 54/26/26
f 33/61/60 84/27/27 15/29/29
f 57/93/84 85/30/30 22/32/32
f 58/73/72 86/33/33 14/35/35
f 36/95/14 87/36/36 18/38/38
f 61/96/86 88/39/39 23/41/41
f 62/74/73 89/42/42 17/44/44
f 63/46/46 20/76/75 38/47/47
f 65/103/91 91/48/48 24/50/50
f 66/77/76 92/51/51 9/53/53
f 67/55/55 18/78/38 48/56/9
f 69/113/96 94/57/56 25/59/58
f 70/79/77 95/60/59 15/29/29
f 71/63/62 10/80/78 40/64/63
f 73/119/97 97/65/64 26/67/66
f 31/69/68 13/81/79 74/70/69
f 12/20/20 51/19/19 42/71/70
f 51/19/19 21/23/23 75/1/1
f 75/1/1 54/26/26 29/2/2
f 76/4/4 45/6/6 15/29/29
f 55/28/28 22/32/32 76/4/4
f 14/35/35 32/5/5 76/4/4
f 18/38/38 59/37/37 48/9/9
f 62/74/73 77/7/7 59/37/37
f 17/44/44 35/8/8 77/7/7
f 78/75/74 50/11/11 20/76/75
f 66/77/76 78/75/74 63/46/46
f 78/75/74 66/77/76 39/12/12
f 79/13/13 36/14/14 18/78/38
f 70/79/77 79/13/13 67/55/55
f 79/13/13 70/79/77 45/6/6
f 80/15/15 28/17/17 10/80/78
f 74/70/69 80/15/15 71/63/62
f 13/81/79 43/16/16 80/15/15
f 81/18/18 30/82/80 39/84/12
f 39/84/12 9/85/53 81/18/18
f 81/18/18 53/86/81 51/19/19
f 82/21/21 53/86/81 9/85/53
f 27/87/52 5/88/82 82/21/21
f 10/90/78 52/22/22 82/21/21
f 83/24/24 54/26/26 21/23/23
f 28/91/17 83/24/24 52/22/22
f 6/92/83 41/25/25 83/24/24
f 2/3/3 29/2/2 33/61/60
f 29/2/2 11/72/71 84/27/27
f 84/27/27 57/93/84 55/28/28
f 85/30/30 57/93/84 11/72/71
f 43/16/16 85/30/30 41/25/25
f 13/81/79 56/31/31 85/30/30
f 22/32/32 56/31/31 58/73/72
f 56/31/31 13/81/79 86/33/33
f 86/33/33 31/69/68 44/34/34
f 3/123/98 32/5/5 36/95/14
f 32/5/5 14/35/35 87/36/36
f 87/36/36 61/96/86 59/37/37
f 88/39/39 61/96/86 14/35/35
f 44/34/34 7/94/85 88/39/39
f 88/39/39 46/97/87 60/40/40
f 89/42/42 62/74/73 23/41/41
f 34/99/89 89/42/42 60/40/40
f 89/42/42 34/99/89 47/43/43
f 4/125/95 35/101/8 38/47/47
f 65/103/91 90/45/45 35/101/8
f 24/50/50 63/46/46 90/45/45
f 17/102/44 47/104/43 65/103/91
f 47/104/43 8/105/90 91/48/48
f 91/48/48 49/106/92 64/49/49
f 24/50/50 64/49/49 66/77/76
f 64/49/49 19/107/93 92/51/51
f 92/51/51 37/108/94 27/52/52
f 93/54/54 48/56/9 4/111/95
f 69/113/96 93/54/54 38/110/47
f 25/59/58 67/55/55 93/54/54
f 94/57/56 69/113/96 20/112/75
f 30/116/80 94/57/56 50/114/11
f 94/57/56 30/116/80 68/58/57
f 25/59/58 68/58/57 70/79/77
f 68/58/57 12/117/20 95/60/59
f 2/3/3 33/61/60 95/60/59
f 96/62/61 40/64/63 5/109/82
f 73/119/97 96/62/61 37/108/94
f 26/67/66 71/63/62 96/62/61
f 19/107/93 49/106/92 73/119/97
f 34/120/89 97/65/64 49/106/92
f 16/121/88 72/66/65 97/65/64
f 98/68/67 74/70/69 26/67/66
f 72/66/65 16/121/88 98/68/67
f 98/68/67 46/122/87 31/69/68
