# Blender v2.69 (sub 0) OBJ File: ''
# www.blender.org
o Rock_1
v -0.478931 -0.464982 0.966643
v -0.595742 -0.516199 -0.885684
v 0.504892 -0.590355 -0.763405
v 0.492532 -0.414508 1.005055
v -0.631311 0.468534 0.971384
v -0.582931 0.446714 -0.791812
v 0.502601 0.527266 -0.738877
v 0.491042 0.537625 0.856825
v -0.611874 -0.007086 1.050634
v -0.565165 0.597724 0.187689
v -0.778948 0.006483 -0.833810
v -0.520031 -0.757634 -0.043618
v -0.001000 0.594209 -0.942972
v 0.647911 -0.023330 -0.979890
v -0.002704 -0.642732 -0.948037
v 0.638278 0.637051 0.033824
v 0.580963 0.048357 1.031451
v 0.639920 -0.640853 0.010077
v -0.085831 0.622610 0.859975
v 0.054515 -0.582256 1.008656
v -0.619908 -0.029019 -0.100018
v 0.002186 0.003807 -1.006234
v 0.646434 -0.012437 0.046868
v -0.048434 -0.010015 1.104058
v 0.007424 -0.719572 -0.065099
v -0.032968 0.756343 -0.034947
v -0.618510 0.277021 1.050287
v -0.593191 0.529458 -0.408247
v -0.612087 -0.247352 -0.934935
v -0.580208 -0.630490 0.483354
v 0.266333 0.546825 -0.814201
v 0.576942 -0.309785 -0.860815
v -0.282225 -0.510859 -1.015685
v 0.562950 0.613201 0.528908
v 0.552716 -0.183933 1.044422
v 0.576001 -0.619912 -0.455947
v -0.370836 0.517585 1.010378
v 0.266568 -0.496501 1.018060
v -0.535246 -0.218865 0.997359
v -0.575965 0.580784 0.710186
v -0.737974 0.278993 -0.845671
v -0.698138 -0.560660 -0.551522
v -0.379046 0.561648 -0.961885
v 0.581274 0.246216 -0.842319
v 0.249681 -0.613833 -0.824564
v 0.561503 0.626282 -0.460091
v 0.527507 0.326149 0.908534
v 0.609580 -0.599878 0.487217
v 0.241341 0.583824 1.012121
v -0.195924 -0.518575 0.980849
v -0.554142 -0.378039 -0.116864
v -0.613286 0.277335 0.039196
v -0.656181 -0.030929 0.530942
v -0.720750 -0.060584 -0.488812
v -0.001232 -0.320214 -0.972973
v 0.015439 0.305325 -0.970746
v -0.393473 0.005360 -0.910093
v 0.324269 -0.012660 -0.972813
v 0.639909 -0.321883 0.023246
v 0.640833 0.302411 0.077154
v 0.664595 -0.075363 -0.568349
v 0.664370 0.026474 0.511545
v 0.023659 -0.317777 1.072674
v -0.013184 0.312975 1.061241
v 0.274274 0.012580 1.087059
v -0.325127 -0.011401 1.077446
v 0.324597 -0.654923 -0.007048
v -0.252728 -0.788517 -0.075118
v 0.011941 -0.685964 0.470391
v -0.020509 -0.663511 -0.551717
v -0.306192 0.676919 0.062755
v 0.296209 0.703269 -0.008121
v -0.009233 0.669078 0.488482
v 0.013085 0.706972 -0.507271
v -0.724070 -0.365285 -0.594667
v 0.291192 -0.314070 -0.874498
v 0.640592 -0.291012 0.502864
v -0.260839 -0.250324 1.009139
v 0.290128 -0.643277 -0.471842
v -0.289597 0.627769 -0.445819
v -0.614280 -0.310167 0.490830
v -0.616257 0.271608 0.643950
v -0.687018 0.232616 -0.437883
v -0.357551 -0.309153 -0.988779
v -0.394403 0.294968 -0.916449
v 0.309489 0.259956 -0.861184
v 0.627848 -0.356745 -0.508917
v 0.616921 0.282343 -0.510837
v 0.619838 0.322968 0.523438
v 0.306642 -0.255027 1.089643
v 0.244606 0.310171 1.027007
v -0.296647 0.294281 1.057027
v 0.321486 -0.653840 0.474877
v -0.297680 -0.689656 0.464427
v -0.389951 -0.664907 -0.645319
v -0.289561 0.616398 0.589677
v 0.283196 0.643101 0.506388
v 0.297112 0.664361 -0.469527
vt 0.081531 0.356060
vt 0.094339 0.436261
vt 0.027657 0.458991
vt 0.093856 0.886287
vt 0.089860 0.942588
vt 0.036854 0.925058
vt 0.618449 0.865547
vt 0.736809 0.844036
vt 0.727565 0.893946
vt 0.768110 0.739676
vt 0.751031 0.679431
vt 0.810641 0.688165
vt 0.359035 0.326399
vt 0.357717 0.403193
vt 0.304139 0.382870
vt 0.770640 0.113243
vt 0.786304 0.000000
vt 0.857850 0.013553
vt 0.101608 0.119319
vt 0.082036 0.249435
vt 0.031836 0.117943
vt 0.229261 0.090525
vt 0.225846 0.221562
vt 0.162717 0.113454
vt 0.212627 0.325906
vt 0.219691 0.415515
vt 0.160638 0.411628
vt 0.105092 0.757600
vt 0.096876 0.827515
vt 0.042809 0.761655
vt 0.224972 0.761450
vt 0.219433 0.841285
vt 0.160155 0.833165
vt 0.206365 0.899662
vt 0.199116 0.952992
vt 0.151623 0.896509
vt 0.398186 0.876225
vt 0.514026 0.870555
vt 0.408891 0.933566
vt 0.400054 0.737198
vt 0.527958 0.734964
vt 0.520244 0.803346
vt 0.625142 0.732045
vt 0.733352 0.736506
vt 0.621408 0.796565
vt 0.799124 0.565318
vt 0.790998 0.627868
vt 0.746984 0.578800
vt 0.922088 0.567543
vt 0.928131 0.623329
vt 0.857659 0.567018
vt 0.929669 0.685106
vt 0.932254 0.755174
vt 0.864269 0.697342
vt 0.378442 0.121590
vt 0.364525 0.225406
vt 0.296887 0.213063
vt 0.511985 0.140924
vt 0.487410 0.254131
vt 0.430851 0.244188
vt 0.499910 0.379354
vt 0.471130 0.468096
vt 0.409033 0.436933
vt 0.778883 0.338202
vt 0.778043 0.223929
vt 0.835688 0.248586
vt 0.653615 0.324722
vt 0.646432 0.213376
vt 0.716908 0.318711
vt 0.642764 0.112879
vt 0.647275 0.037030
vt 0.703997 0.102722
vt 0.017122 0.376146
vt 0.158193 0.249554
vt 0.148576 0.335343
vt 0.036145 0.873793
vt 0.143855 0.959715
vt 0.614022 0.932618
vt 0.734748 0.793514
vt 0.859331 0.637373
vt 0.870638 0.759377
vt 0.822782 0.746986
vt 0.297605 0.315009
vt 0.422855 0.349210
vt 0.837381 0.118452
vt 0.717515 0.205303
vt 0.704136 0.007250
vt 0.071296 0.012672
vt 0.171795 0.000238
vt 0.125167 0.008849
vt 0.233569 0.002555
vt 0.296887 0.000000
vt 0.296887 0.077775
vt 0.296524 0.190933
vt 0.277164 0.320051
vt 0.272576 0.425677
vt 0.114776 0.686327
vt 0.052819 0.699304
vt 0.175704 0.682298
vt 0.168145 0.756869
vt 0.228400 0.694738
vt 0.275596 0.704821
vt 0.276680 0.768320
vt 0.276680 0.843267
vt 0.263845 0.896626
vt 0.256553 0.943645
vt 0.321929 0.864675
vt 0.342282 0.925925
vt 0.296887 0.802066
vt 0.386174 0.814875
vt 0.327910 0.743818
vt 0.351577 0.682925
vt 0.412431 0.662479
vt 0.519724 0.662022
vt 0.627485 0.668843
vt 0.736809 0.683798
vt 0.809203 0.510605
vt 0.760124 0.528223
vt 0.858794 0.499876
vt 0.916733 0.510904
vt 0.969863 0.512431
vt 0.981238 0.562819
vt 0.995733 0.612179
vt 0.995733 0.681640
vt 0.995607 0.752812
vt 0.403459 0.004206
vt 0.353488 0.000000
vt 0.449858 0.012910
vt 0.445385 0.131256
vt 0.502349 0.024934
vt 0.562346 0.035016
vt 0.572728 0.143788
vt 0.546685 0.257196
vt 0.572728 0.402571
vt 0.538553 0.482808
vt 0.786635 0.435003
vt 0.842251 0.361945
vt 0.717144 0.430406
vt 0.666993 0.433942
vt 0.616110 0.439833
vt 0.593131 0.331614
vt 0.572728 0.224756
vt 0.585554 0.116759
vt 0.596612 0.055120
vt 0.000000 0.230123
vt 0.033788 0.822160
vt 0.510033 0.939885
vt 0.732542 0.626440
vt 0.316093 0.110562
vt 0.857850 0.440336
vn -0.988983 -0.147984 0.002838
vn -0.540941 -0.061708 -0.838771
vn -0.590045 -0.532426 -0.606891
vn 0.204749 -0.281045 -0.937559
vn 0.632618 -0.379254 -0.675192
vn 0.516831 -0.676382 -0.524735
vn 0.989593 -0.098788 0.104587
vn 0.692953 -0.141057 0.707022
vn 0.579547 -0.529496 0.619434
vn -0.530168 -0.513657 0.674551
vn -0.203101 -0.649495 0.732688
vn -0.136540 -0.197699 0.970672
vn 0.104434 -0.991150 -0.081912
vn 0.270272 -0.742698 -0.612629
vn -0.299081 0.944578 -0.135136
vn -0.380718 0.572771 -0.725883
vn -0.649251 0.648030 -0.398083
vn -0.987426 -0.144993 0.062655
vn -0.984802 -0.114811 0.130100
vn -0.745842 -0.635151 0.200720
vn -0.995025 0.099155 -0.006500
vn -0.994171 0.102695 0.031861
vn -0.998230 -0.042421 0.041383
vn -0.969695 0.208167 0.127842
vn -0.756462 0.375530 -0.535417
vn -0.855708 0.008057 -0.517350
vn -0.167669 0.061251 -0.983917
vn 0.194281 -0.112033 -0.974517
vn -0.156194 -0.401807 -0.902280
vn -0.260903 0.002503 -0.965361
vn 0.166326 0.097079 -0.981262
vn 0.020814 0.063692 -0.997742
vn 0.215033 0.286142 -0.933714
vn 0.667409 0.404492 -0.625233
vn 0.093539 0.062136 -0.993652
vn 0.975829 -0.193396 -0.101566
vn 0.998993 -0.043977 -0.005158
vn 0.667684 -0.733146 -0.129063
vn 0.980926 0.169958 -0.094150
vn 0.998199 0.058779 -0.009064
vn 0.999908 0.004761 -0.011383
vn 0.976043 0.168035 0.138127
vn 0.745140 0.319681 0.585253
vn 0.995788 0.030152 0.086459
vn 0.088565 -0.132115 0.987243
vn -0.100833 -0.172918 0.979736
vn 0.233711 -0.653279 0.720115
vn 0.243019 0.188757 0.951445
vn 0.009308 0.257668 0.966155
vn 0.101413 0.088137 0.990905
vn -0.035432 0.142674 0.989105
vn -0.697958 0.091067 0.710288
vn -0.081759 -0.120212 0.989349
vn 0.151769 -0.975921 0.156529
vn 0.115268 -0.993286 -0.008362
vn 0.737083 -0.675008 -0.031434
vn -0.070833 -0.967589 0.242347
vn 0.066439 -0.997772 -0.001740
vn 0.195563 -0.980682 0.003265
vn -0.188299 -0.948485 -0.254677
vn 0.178442 -0.704947 -0.686422
vn -0.145207 0.982330 0.117924
vn -0.270333 0.962584 0.017975
vn -0.727439 0.685903 0.017640
vn 0.109409 0.985046 0.133000
vn 0.161473 0.986419 0.029176
vn -0.025239 0.991302 0.129063
vn 0.163579 0.963836 -0.210303
vn 0.337382 0.637074 -0.693014
vn -0.035920 0.979522 -0.197974
vn -0.849422 -0.525315 -0.049684
vn -0.991821 -0.083956 0.095859
vn -0.973113 -0.019013 0.229408
vn 0.654286 0.028596 -0.755699
vn 0.714682 -0.663808 0.220344
vn 0.718741 0.147221 0.679464
vn -0.044771 -0.028382 0.998566
vn -0.712149 -0.177892 0.679098
vn -0.638050 -0.317454 0.701468
vn 0.088046 -0.989349 -0.115696
vn -0.726615 0.682485 -0.078646
vn -0.067232 0.997620 0.014740
vn 0.167638 0.662130 -0.730369
vn -0.745262 0.486160 0.456252
vn -0.641163 0.762505 0.086306
vn -0.208380 0.104129 -0.972472
vn 0.563189 0.594501 -0.573901
vn 0.998566 -0.008606 -0.052370
vn 0.673879 0.705313 -0.220008
vn 0.781091 0.624287 0.009705
vn 0.660909 0.724509 0.195532
vn 0.638966 0.594714 0.487808
vn 0.198340 0.644917 0.738029
vn -0.080966 0.903043 0.421766
vn -0.078494 0.679159 0.729759
vn -0.008606 -0.746727 0.665029
vn 0.042177 -0.989105 0.140934
vn -0.635975 -0.770806 0.036714
s 1
f 75/1/1 29/2/2 2/3/3
f 76/4/4 32/5/5 3/6/6
f 77/7/7 35/8/8 4/9/9
f 1/10/10 50/11/11 78/12/12
f 79/13/13 45/14/14 3/15/6
f 80/16/15 43/17/16 6/18/17
f 81/19/18 51/20/19 30/21/20
f 82/22/21 52/23/22 53/24/23
f 83/25/24 41/26/25 11/27/26
f 84/28/27 55/29/28 33/30/29
f 85/31/30 56/32/31 22/33/32
f 86/34/33 44/35/34 58/36/35
f 87/37/36 59/38/37 36/39/38
f 88/40/39 60/41/40 23/42/41
f 89/43/42 47/44/43 62/45/44
f 90/46/45 63/47/46 38/48/47
f 91/49/48 64/50/49 65/51/50
f 92/52/51 27/53/52 66/54/53
f 93/55/54 67/56/55 18/57/56
f 94/58/57 68/59/58 25/60/59
f 95/61/60 33/62/29 15/63/61
f 96/64/62 71/65/63 10/66/64
f 97/67/65 72/68/66 73/69/67
f 98/70/68 31/71/69 74/72/70
f 51/20/19 75/1/1 42/73/71
f 21/74/72 54/75/73 51/20/19
f 54/75/73 11/27/26 75/1/1
f 55/29/28 76/4/4 45/76/14
f 22/33/32 58/36/35 55/29/28
f 58/36/35 14/77/74 32/5/5
f 59/38/37 77/7/7 48/78/75
f 23/42/41 62/45/44 77/7/7
f 62/45/44 17/79/76 35/8/8
f 63/47/46 78/12/12 50/11/11
f 24/80/77 66/54/53 78/12/12
f 66/54/53 9/81/78 39/82/79
f 67/56/55 79/13/13 36/83/38
f 25/60/59 70/84/80 79/13/13
f 70/84/80 15/63/61 45/14/14
f 71/65/63 80/16/15 28/85/81
f 26/86/82 74/72/70 80/16/15
f 74/72/70 13/87/83 80/16/15
f 30/21/20 1/88/10 81/19/18
f 9/89/78 53/24/23 39/90/79
f 53/24/23 21/74/72 81/19/18
f 27/91/52 82/22/21 9/89/78
f 5/92/84 40/93/85 82/22/21
f 40/93/85 10/94/64 82/22/21
f 52/23/22 83/25/24 21/74/72
f 10/94/64 28/95/81 52/23/22
f 28/95/81 6/96/17 83/25/24
f 29/97/2 84/28/27 2/98/3
f 11/99/26 57/100/86 29/97/2
f 57/100/86 22/33/32 84/28/27
f 41/101/25 85/31/30 57/100/86
f 6/102/17 43/103/16 85/31/30
f 43/103/16 13/104/83 56/32/31
f 56/32/31 86/34/33 22/33/32
f 13/104/83 31/105/69 56/32/31
f 31/105/69 7/106/87 86/34/33
f 32/107/5 87/37/36 3/108/6
f 14/109/74 61/110/88 32/107/5
f 61/110/88 23/42/41 59/38/37
f 44/111/34 88/40/39 61/110/88
f 7/112/87 46/113/89 88/40/39
f 46/113/89 16/114/90 60/41/40
f 60/41/40 89/43/42 62/45/44
f 16/114/90 34/115/91 60/41/40
f 34/115/91 8/116/92 89/43/42
f 35/117/8 90/46/45 4/118/9
f 17/119/76 65/51/50 35/117/8
f 65/51/50 24/80/77 63/47/46
f 47/120/43 91/49/48 17/119/76
f 8/121/92 49/122/93 91/49/48
f 49/122/93 19/123/94 64/50/49
f 64/50/49 92/52/51 24/80/77
f 19/123/94 37/124/95 64/50/49
f 37/124/95 5/125/84 27/53/52
f 38/126/47 93/55/54 4/127/9
f 20/128/96 69/129/97 93/55/54
f 69/129/97 25/60/59 67/56/55
f 50/130/11 94/58/57 69/129/97
f 1/131/10 30/132/20 94/58/57
f 30/132/20 12/133/98 94/58/57
f 68/59/58 95/61/60 70/84/80
f 12/133/98 42/134/71 95/61/60
f 42/134/71 2/135/3 95/61/60
f 37/136/95 96/64/62 40/137/85
f 19/138/94 73/69/67 96/64/62
f 73/69/67 26/86/82 71/65/63
f 49/139/93 97/67/65 19/138/94
f 8/140/92 34/141/91 97/67/65
f 34/141/91 16/142/90 97/67/65
f 72/68/66 98/70/68 26/86/82
f 16/142/90 46/143/89 72/68/66
f 46/143/89 7/144/87 98/70/68
f 42/73/71 75/1/1 2/3/3
f 45/76/14 76/4/4 3/6/6
f 48/78/75 77/7/7 4/9/9
f 39/82/79 1/10/10 78/12/12
f 36/83/38 79/13/13 3/15/6
f 28/85/81 80/16/15 6/18/17
f 51/20/19 12/145/98 30/21/20
f 52/23/22 21/74/72 53/24/23
f 54/75/73 83/25/24 11/27/26
f 55/29/28 15/146/61 33/30/29
f 57/100/86 85/31/30 22/33/32
f 44/35/34 14/77/74 58/36/35
f 59/38/37 18/147/56 36/39/38
f 61/110/88 88/40/39 23/42/41
f 47/44/43 17/79/76 62/45/44
f 63/47/46 20/148/96 38/48/47
f 64/50/49 24/80/77 65/51/50
f 27/53/52 9/81/78 66/54/53
f 48/149/75 93/55/54 18/57/56
f 69/129/97 94/58/57 25/60/59
f 70/84/80 95/61/60 15/63/61
f 40/137/85 96/64/62 10/66/64
f 72/68/66 26/86/82 73/69/67
f 31/71/69 13/87/83 74/72/70
f 12/145/98 51/20/19 42/73/71
f 54/75/73 75/1/1 51/20/19
f 11/27/26 29/2/2 75/1/1
f 15/146/61 55/29/28 45/76/14
f 58/36/35 76/4/4 55/29/28
f 76/4/4 58/36/35 32/5/5
f 18/147/56 59/38/37 48/78/75
f 59/38/37 23/42/41 77/7/7
f 77/7/7 62/45/44 35/8/8
f 20/148/96 63/47/46 50/11/11
f 63/47/46 24/80/77 78/12/12
f 78/12/12 66/54/53 39/82/79
f 18/57/56 67/56/55 36/83/38
f 67/56/55 25/60/59 79/13/13
f 79/13/13 70/84/80 45/14/14
f 10/66/64 71/65/63 28/85/81
f 71/65/63 26/86/82 80/16/15
f 13/87/83 43/17/16 80/16/15
f 1/88/10 39/90/79 81/19/18
f 53/24/23 81/19/18 39/90/79
f 21/74/72 51/20/19 81/19/18
f 82/22/21 53/24/23 9/89/78
f 27/91/52 5/92/84 82/22/21
f 10/94/64 52/23/22 82/22/21
f 83/25/24 54/75/73 21/74/72
f 28/95/81 83/25/24 52/23/22
f 6/96/17 41/26/25 83/25/24
f 84/28/27 33/30/29 2/98/3
f 57/100/86 84/28/27 29/97/2
f 22/33/32 55/29/28 84/28/27
f 11/99/26 41/101/25 57/100/86
f 41/101/25 6/102/17 85/31/30
f 85/31/30 43/103/16 56/32/31
f 86/34/33 58/36/35 22/33/32
f 31/105/69 86/34/33 56/32/31
f 7/106/87 44/35/34 86/34/33
f 87/37/36 36/39/38 3/108/6
f 61/110/88 87/37/36 32/107/5
f 87/37/36 61/110/88 59/38/37
f 14/109/74 44/111/34 61/110/88
f 44/111/34 7/112/87 88/40/39
f 88/40/39 46/113/89 60/41/40
f 23/42/41 60/41/40 62/45/44
f 34/115/91 89/43/42 60/41/40
f 8/116/92 47/44/43 89/43/42
f 90/46/45 38/48/47 4/118/9
f 65/51/50 90/46/45 35/117/8
f 90/46/45 65/51/50 63/47/46
f 91/49/48 65/51/50 17/119/76
f 47/120/43 8/121/92 91/49/48
f 91/49/48 49/122/93 64/50/49
f 92/52/51 66/54/53 24/80/77
f 37/124/95 92/52/51 64/50/49
f 92/52/51 37/124/95 27/53/52
f 93/55/54 48/149/75 4/127/9
f 38/126/47 20/128/96 93/55/54
f 93/55/54 69/129/97 67/56/55
f 20/128/96 50/130/11 69/129/97
f 50/130/11 1/131/10 94/58/57
f 12/133/98 68/59/58 94/58/57
f 25/60/59 68/59/58 70/84/80
f 68/59/58 12/133/98 95/61/60
f 2/135/3 33/62/29 95/61/60
f 5/150/84 37/136/95 40/137/85
f 37/136/95 19/138/94 96/64/62
f 96/64/62 73/69/67 71/65/63
f 97/67/65 73/69/67 19/138/94
f 49/139/93 8/140/92 97/67/65
f 16/142/90 72/68/66 97/67/65
f 98/70/68 74/72/70 26/86/82
f 46/143/89 98/70/68 72/68/66
f 7/144/87 31/71/69 98/70/68
